<svg xmlns="http://www.w3.org/2000/svg" xmlns:xlink="http://www.w3.org/1999/xlink" width="500" zoomAndPan="magnify" viewBox="0 0 375 374.999991" height="500" preserveAspectRatio="xMidYMid meet" version="1.0"><defs><clipPath id="c1e0183f9f"><path d="M 187.5 0 C 83.945312 0 0 83.945312 0 187.5 C 0 291.054688 83.945312 375 187.5 375 C 291.054688 375 375 291.054688 375 187.5 C 375 83.945312 291.054688 0 187.5 0 Z M 187.5 0 " clip-rule="nonzero"/></clipPath><clipPath id="7805bb3a43"><path d="M 0 0 L 375 0 L 375 375 L 0 375 Z M 0 0 " clip-rule="nonzero"/></clipPath><clipPath id="b0e6212872"><path d="M 187.5 0 C 83.945312 0 0 83.945312 0 187.5 C 0 291.054688 83.945312 375 187.5 375 C 291.054688 375 375 291.054688 375 187.5 C 375 83.945312 291.054688 0 187.5 0 Z M 187.5 0 " clip-rule="nonzero"/></clipPath><clipPath id="d0797ab611"><rect x="0" width="375" y="0" height="375"/></clipPath><clipPath id="0c3e1b075a"><path d="M 15 67 L 360 67 L 360 246.601562 L 15 246.601562 Z M 15 67 " clip-rule="nonzero"/></clipPath><clipPath id="73d6785214"><path d="M 63.019531 119 L 293 119 L 293 255 L 63.019531 255 Z M 63.019531 119 " clip-rule="nonzero"/></clipPath></defs><g clip-path="url(#c1e0183f9f)"><g transform="matrix(1, 0, 0, 1, 0, 0)"><g clip-path="url(#d0797ab611)"><g clip-path="url(#7805bb3a43)"><g clip-path="url(#b0e6212872)"><rect x="-82.5" width="540" fill="#fbfbfb" height="539.999987" y="-82.499998" fill-opacity="1"/></g></g></g></g></g><g clip-path="url(#0c3e1b075a)"><path fill="#3c467b" d="M 16.128906 246.195312 C 15.40625 234.824219 15.871094 223.503906 17.523438 212.234375 C 19.175781 200.960938 21.980469 189.984375 25.933594 179.300781 C 29.976562 168.457031 35.078125 158.132812 41.230469 148.332031 C 47.382812 138.53125 54.464844 129.453125 62.472656 121.101562 C 70.523438 112.660156 79.339844 105.113281 88.921875 98.457031 C 98.503906 91.804688 108.65625 86.179688 119.378906 81.582031 C 124.75 79.285156 130.222656 77.265625 135.800781 75.523438 C 141.375 73.777344 147.023438 72.320312 152.746094 71.148438 C 158.46875 69.976562 164.238281 69.097656 170.050781 68.507812 C 175.863281 67.917969 181.6875 67.625 187.53125 67.625 C 193.371094 67.625 199.199219 67.917969 205.011719 68.507812 C 210.824219 69.097656 216.589844 69.976562 222.3125 71.148438 C 228.035156 72.320312 233.6875 73.777344 239.261719 75.523438 C 244.835938 77.265625 250.3125 79.285156 255.683594 81.582031 C 266.410156 86.179688 276.566406 91.804688 286.152344 98.460938 C 295.742188 105.113281 304.566406 112.660156 312.625 121.101562 C 320.613281 129.460938 327.671875 138.542969 333.808594 148.34375 C 339.941406 158.144531 345.023438 168.460938 349.054688 179.300781 C 353.011719 189.984375 355.816406 200.960938 357.460938 212.234375 C 359.109375 223.503906 359.5625 234.828125 358.828125 246.195312 C 358.085938 235.085938 356.347656 224.140625 353.605469 213.347656 C 350.863281 202.558594 347.167969 192.109375 342.515625 181.996094 C 337.917969 172.050781 332.429688 162.628906 326.050781 153.722656 C 319.671875 144.820312 312.511719 136.589844 304.578125 129.039062 C 302.628906 127.179688 300.636719 125.367188 298.601562 123.601562 C 296.5625 121.835938 294.488281 120.117188 292.371094 118.453125 C 290.25 116.785156 288.09375 115.167969 285.902344 113.605469 C 283.707031 112.042969 281.476562 110.53125 279.207031 109.074219 C 276.941406 107.613281 274.640625 106.210938 272.308594 104.863281 C 269.976562 103.515625 267.609375 102.222656 265.214844 100.988281 C 262.820312 99.753906 260.398438 98.574219 257.945312 97.453125 C 255.496094 96.335938 253.019531 95.273438 250.519531 94.269531 C 248.015625 93.269531 245.492188 92.328125 242.945312 91.445312 C 240.398438 90.5625 237.832031 89.742188 235.246094 88.980469 C 232.660156 88.222656 230.058594 87.523438 227.441406 86.890625 C 224.820312 86.253906 222.1875 85.679688 219.542969 85.171875 C 216.898438 84.660156 214.238281 84.210938 211.570312 83.828125 C 208.90625 83.445312 206.230469 83.125 203.546875 82.867188 C 200.863281 82.613281 198.175781 82.421875 195.484375 82.292969 C 192.792969 82.164062 190.101562 82.097656 187.40625 82.097656 C 184.710938 82.097656 182.015625 82.164062 179.324219 82.292969 C 176.632812 82.421875 173.945312 82.613281 171.261719 82.867188 C 168.578125 83.125 165.90625 83.445312 163.238281 83.828125 C 160.570312 84.210938 157.914062 84.660156 155.265625 85.171875 C 152.621094 85.679688 149.988281 86.253906 147.371094 86.890625 C 144.75 87.523438 142.148438 88.222656 139.5625 88.980469 C 136.976562 89.742188 134.410156 90.5625 131.863281 91.445312 C 129.316406 92.328125 126.792969 93.269531 124.292969 94.269531 C 121.789062 95.273438 119.3125 96.335938 116.863281 97.453125 C 114.410156 98.574219 111.988281 99.753906 109.59375 100.988281 C 107.199219 102.222656 104.835938 103.515625 102.5 104.863281 C 100.167969 106.210938 97.867188 107.613281 95.601562 109.074219 C 93.335938 110.53125 91.105469 112.042969 88.910156 113.605469 C 86.714844 115.167969 84.558594 116.785156 82.441406 118.453125 C 80.324219 120.117188 78.246094 121.835938 76.210938 123.601562 C 74.175781 125.367188 72.179688 127.179688 70.230469 129.039062 C 62.320312 136.601562 55.1875 144.832031 48.824219 153.738281 C 42.464844 162.640625 36.988281 172.058594 32.402344 181.996094 C 27.757812 192.109375 24.066406 202.5625 21.332031 213.351562 C 18.59375 224.140625 16.859375 235.089844 16.128906 246.195312 Z M 16.128906 246.195312 " fill-opacity="1" fill-rule="nonzero"/></g><path fill="#636ccb" d="M 311.972656 222.453125 C 311.972656 222.453125 311.667969 221.792969 311.15625 221.128906 L 311.15625 214.027344 C 311.15625 214.027344 310.898438 213.109375 310.289062 212.699219 C 310.289062 212.699219 309.011719 203.355469 306.917969 196.308594 C 306.917969 196.308594 305.691406 189.925781 295.527344 187.933594 L 259.117188 187.933594 C 259.117188 187.933594 258.609375 187.933594 258.097656 188.136719 C 258.300781 187.628906 258.8125 187.269531 259.375 187.269531 L 287.308594 186.605469 C 287.050781 184.765625 285.671875 184.15625 283.835938 184.15625 L 254.878906 184.15625 C 253.757812 184.15625 252.632812 184.257812 251.558594 184.5625 L 200.441406 201.773438 L 248.496094 192.734375 L 248.597656 198.148438 L 201.820312 209.890625 L 248.699219 204.070312 L 248.800781 208.617188 L 200.75 217.808594 L 248.90625 215.714844 L 249.007812 220.414062 L 201.617188 226.132812 L 249.160156 228.429688 L 249.261719 233.585938 L 201.921875 235.015625 L 252.886719 241.757812 C 252.886719 241.757812 252.378906 231.953125 256.257812 229.757812 C 256.257812 228.582031 256.257812 226.898438 256.257812 224.90625 C 256.410156 224.957031 256.617188 225.007812 256.820312 225.007812 L 256.820312 227.101562 C 256.820312 227.101562 256.820312 227.410156 257.125 227.511719 L 257.125 230.675781 C 257.125 230.675781 253.296875 232.515625 254.011719 243.085938 C 254.011719 243.085938 255.542969 243.445312 256.207031 243.546875 C 256.105469 241.960938 256.105469 239.765625 256.105469 239.765625 C 256.410156 234.660156 257.636719 233.433594 257.636719 233.433594 C 259.425781 230.726562 262.285156 231.699219 262.285156 231.699219 C 260.597656 231.800781 258.964844 233.179688 258.453125 233.945312 C 256.566406 236.753906 256.71875 241.09375 256.972656 243.546875 C 257.023438 244.109375 257.28125 244.976562 257.585938 245.84375 C 257.585938 245.84375 227.863281 242.78125 227.863281 242.78125 L 261.46875 251.511719 L 265.65625 251.410156 L 265.757812 251.410156 C 265.757812 251.410156 268.667969 251.359375 269.585938 247.527344 L 291.1875 247.222656 C 291.1875 247.222656 292.925781 249.980469 295.222656 249.929688 L 299.511719 249.929688 C 299.511719 249.929688 301.351562 249.777344 302.832031 247.171875 L 307.886719 246.761719 C 307.886719 246.761719 310.542969 246.507812 310.746094 244.875 L 310.746094 229.554688 C 310.796875 229.554688 311.871094 229.707031 311.871094 228.019531 C 311.871094 227.867188 311.871094 222.507812 311.871094 222.507812 Z M 305.386719 197.277344 C 305.386719 197.277344 306.867188 203.050781 307.835938 212.699219 C 307.835938 212.699219 284.449219 213.570312 276.429688 213.058594 C 276.429688 213.058594 275.816406 202.179688 275.304688 197.535156 L 305.386719 197.328125 Z M 306.609375 221.433594 L 285.164062 221.894531 L 282.046875 219.75 L 285.417969 220.566406 L 306.660156 220.257812 L 307.683594 219.75 Z M 307.171875 223.988281 L 306.101562 225.671875 L 286.285156 226.234375 L 283.578125 224.191406 L 286.695312 225.058594 L 306.152344 224.496094 Z M 279.492188 229.503906 L 278.675781 229.042969 C 278.421875 228.890625 278.269531 228.632812 278.269531 228.378906 L 278.113281 224.34375 C 278.113281 224.089844 278.371094 223.78125 278.574219 223.9375 L 279.289062 224.445312 C 279.289062 224.546875 279.492188 229.554688 279.492188 229.554688 Z M 270.8125 191.917969 C 270.8125 191.917969 271.578125 191.816406 271.730469 192.476562 L 271.730469 194.726562 C 271.730469 194.726562 271.222656 195.59375 270.148438 195.441406 L 263.664062 195.132812 L 270.863281 194.46875 L 270.863281 192.835938 C 270.863281 192.835938 261.363281 192.632812 261.363281 192.632812 L 270.8125 191.96875 Z M 263.050781 245.945312 C 262.691406 246.457031 262.234375 246.761719 261.773438 246.761719 C 260.34375 246.8125 259.117188 244.515625 258.964844 241.605469 C 258.8125 238.695312 259.832031 236.242188 261.261719 236.191406 C 261.925781 236.191406 262.539062 236.652344 263.050781 237.519531 C 262.949219 237.519531 262.847656 237.519531 262.742188 237.519531 C 261.621094 237.570312 260.804688 239.511719 260.90625 241.859375 C 261.007812 244.109375 261.976562 245.945312 263.050781 245.996094 Z M 267.699219 233.179688 C 265.347656 227.613281 258.964844 228.789062 258.964844 228.789062 L 258.964844 227.101562 C 267.492188 226.386719 267.800781 233.433594 267.699219 233.179688 Z M 257.996094 223.222656 L 269.433594 222.453125 L 269.433594 218.828125 C 269.433594 218.828125 256.617188 215.613281 256.617188 215.613281 L 271.628906 218.0625 L 271.628906 223.9375 C 271.628906 223.9375 257.945312 223.222656 257.945312 223.222656 Z M 261.363281 209.28125 C 259.324219 208.972656 259.425781 206.265625 259.425781 206.265625 L 259.425781 197.890625 C 259.425781 197.890625 272.496094 197.636719 272.496094 197.636719 L 272.804688 212.546875 Z M 274.285156 238.695312 C 273.980469 238.695312 273.722656 238.4375 273.722656 238.132812 L 273.722656 235.121094 C 273.722656 234.8125 273.980469 234.558594 274.285156 234.558594 L 281.230469 234.558594 C 284.855469 234.710938 284.703125 238.644531 284.703125 238.644531 L 274.285156 238.644531 Z M 305.742188 229.503906 L 287.359375 230.269531 L 284.5 228.277344 L 287.613281 229.144531 L 305.894531 228.53125 L 306.917969 228.019531 L 305.792969 229.503906 Z M 310.132812 237.265625 C 310.132812 237.519531 309.929688 237.722656 309.675781 237.722656 L 307.070312 237.722656 C 307.070312 234.097656 309.367188 233.792969 309.367188 233.792969 L 310.238281 233.585938 L 310.238281 237.214844 Z M 310.695312 228.074219 C 310.695312 228.074219 310.644531 228.734375 309.316406 228.839844 L 309.316406 224.242188 C 309.316406 224.039062 309.417969 223.78125 309.625 223.679688 L 310.238281 223.273438 C 310.441406 223.167969 310.695312 223.273438 310.695312 223.527344 Z M 204.628906 170.417969 L 145.441406 170.417969 C 144.472656 170.417969 143.707031 171.183594 143.707031 172.152344 L 143.707031 185.125 C 136.046875 186.554688 129.558594 188.035156 124.605469 189.210938 L 124.605469 188.136719 L 110.972656 188.136719 C 110.105469 188.136719 109.390625 188.851562 109.390625 189.722656 L 109.390625 192.222656 C 108.316406 193.449219 107.296875 194.980469 107.296875 194.980469 L 103.261719 203.253906 C 101.523438 207.953125 96.519531 211.015625 96.519531 211.015625 L 94.9375 211.628906 L 94.9375 205.5 L 85.488281 205.5 C 84.621094 205.5 83.90625 206.214844 83.90625 207.082031 L 83.90625 215.816406 L 69.453125 221.332031 L 69.453125 212.292969 C 69.453125 211.375 69.914062 210.554688 70.679688 210.046875 L 80.792969 203.558594 C 81.199219 203.304688 81.660156 203.152344 82.167969 203.152344 L 94.9375 203.152344 L 94.9375 194.878906 C 94.9375 193.960938 95.394531 193.140625 96.164062 192.632812 L 106.273438 186.144531 C 106.683594 185.890625 107.140625 185.738281 107.652344 185.738281 L 124.605469 185.738281 L 124.605469 179.507812 C 124.605469 178.535156 125.117188 177.617188 125.933594 177.105469 L 140.285156 168.273438 C 140.742188 168.015625 141.253906 167.863281 141.765625 167.863281 L 206.160156 167.863281 C 207.746094 167.863281 209.019531 169.140625 209.019531 170.722656 L 209.019531 180.9375 C 208.101562 180.683594 207.183594 180.476562 206.316406 180.324219 L 206.316406 172.101562 C 206.316406 171.132812 205.546875 170.367188 204.578125 170.367188 Z M 204.628906 170.417969 " fill-opacity="1" fill-rule="nonzero"/><g clip-path="url(#73d6785214)"><path fill="#3c467b" d="M 146.15625 253.042969 C 146.15625 253.042969 139.773438 252.738281 138.703125 253.757812 C 138.703125 253.757812 132.265625 255.953125 126.648438 253.25 C 126.648438 253.25 131.042969 253.964844 136.609375 252.636719 C 136.609375 252.636719 140.082031 251.410156 146.207031 253.042969 Z M 237.261719 200.136719 C 225.105469 222.25 215.25 220.207031 205.753906 239.921875 C 205.753906 239.921875 202.074219 235.273438 198.808594 232.769531 C 198.808594 232.769531 195.847656 229.605469 194.925781 226.082031 C 194.925781 226.082031 194.3125 230.726562 197.171875 233.894531 C 201.359375 238.644531 204.015625 243.085938 204.476562 246.046875 C 204.578125 246.609375 204.527344 247.121094 204.476562 247.578125 L 202.023438 247.578125 C 202.230469 247.578125 202.433594 247.578125 202.636719 247.632812 C 213.15625 249.0625 223.011719 249.265625 223.011719 249.265625 C 215.046875 251.5625 206.109375 251.105469 197.683594 249.878906 C 190.074219 248.804688 182.875 247.171875 177.207031 246.507812 C 170.976562 245.792969 164.695312 247.425781 160.199219 249.0625 C 156.167969 250.59375 150.550781 252.175781 150.550781 252.175781 C 151.519531 251 154.328125 249.621094 155.453125 248.753906 C 156.675781 248.039062 157.953125 247.425781 159.230469 246.917969 L 112.554688 246.253906 C 120.929688 248.601562 129.40625 250.492188 129.40625 250.492188 C 117.710938 249.570312 99.738281 246.046875 99.738281 246.046875 L 99.6875 246.046875 C 83.703125 242.574219 78.390625 241.757812 72.875 243.496094 C 69.199219 244.617188 67.511719 245.945312 67.207031 246.203125 C 68.175781 244.71875 69.453125 243.496094 70.933594 242.523438 C 68.6875 240.175781 63.019531 233.484375 63.121094 225.824219 L 96.671875 213.414062 C 96.671875 213.414062 102.1875 212.34375 103.925781 207.644531 L 108.113281 199.476562 C 108.113281 199.476562 109.234375 195.542969 115.007812 194.164062 C 122.410156 192.425781 153.050781 184.050781 193.75 181.855469 C 197.683594 181.652344 201.617188 181.855469 205.445312 182.519531 C 212.953125 183.847656 224.289062 188.445312 235.320312 193.449219 C 237.824219 194.625 238.691406 197.6875 237.363281 200.136719 Z M 129.355469 195.183594 L 120.929688 197.125 L 120.675781 200.445312 L 128.898438 198.503906 L 129.304688 195.183594 Z M 141.050781 192.632812 L 132.625 194.570312 L 132.214844 197.941406 L 140.640625 196.003906 L 141.101562 192.683594 Z M 292.464844 123.792969 C 292.925781 131.503906 270.453125 138.808594 270.453125 138.808594 C 270.453125 138.808594 245.074219 147.386719 224.390625 153.359375 L 222.453125 153.820312 L 222.453125 153.921875 C 214.484375 156.167969 207.335938 157.957031 202.894531 158.621094 C 186.652344 161.019531 173.683594 158.875 172.40625 158.773438 C 171.128906 158.671875 170.925781 158.210938 170.925781 158.210938 L 170.515625 156.9375 C 170.363281 156.324219 171.332031 156.21875 171.332031 156.21875 L 151.367188 152.238281 L 154.839844 151.214844 L 174.804688 152.851562 L 169.699219 138.296875 L 172.761719 137.480469 L 187.777344 148.867188 L 207.03125 142.789062 L 203.148438 140.132812 L 165.207031 125.324219 L 175.0625 121.136719 L 234.808594 132.117188 C 234.808594 132.117188 275.359375 119.707031 276.789062 119.605469 C 280.105469 119.042969 282.964844 120.523438 282.964844 120.523438 C 282.355469 120.421875 279.75 120.78125 279.75 120.78125 C 277.808594 121.1875 278.421875 122.464844 278.421875 122.464844 C 285.265625 120.574219 290.066406 121.597656 291.445312 122.109375 C 292.875 122.667969 292.464844 123.742188 292.464844 123.742188 Z M 247.628906 131.707031 C 247.628906 131.351562 247.371094 131.199219 247.015625 131.300781 L 246.554688 131.453125 C 246.199219 131.554688 245.941406 131.914062 245.941406 132.269531 L 245.941406 133.242188 C 245.941406 133.597656 246.199219 133.75 246.503906 133.648438 L 246.964844 133.496094 C 247.320312 133.394531 247.578125 133.035156 247.578125 132.679688 L 247.578125 131.707031 Z M 251.917969 130.277344 C 251.917969 129.921875 251.664062 129.769531 251.304688 129.871094 L 250.84375 130.023438 C 250.488281 130.125 250.230469 130.484375 250.230469 130.839844 L 250.230469 131.808594 C 250.230469 132.167969 250.488281 132.320312 250.792969 132.21875 L 251.253906 132.066406 C 251.609375 131.964844 251.867188 131.605469 251.867188 131.25 L 251.867188 130.277344 Z M 256.207031 128.847656 C 256.207031 128.492188 255.953125 128.335938 255.59375 128.441406 L 255.136719 128.59375 C 254.777344 128.695312 254.523438 129.054688 254.523438 129.410156 L 254.523438 130.378906 C 254.523438 130.738281 254.777344 130.890625 255.082031 130.789062 L 255.542969 130.636719 C 255.902344 130.535156 256.15625 130.175781 256.15625 129.820312 L 256.15625 128.847656 Z M 260.496094 127.417969 C 260.496094 127.0625 260.242188 126.90625 259.882812 127.011719 L 259.425781 127.164062 C 259.066406 127.265625 258.8125 127.621094 258.8125 127.980469 L 258.8125 128.949219 C 258.8125 129.308594 259.066406 129.460938 259.375 129.359375 L 259.832031 129.207031 C 260.191406 129.105469 260.445312 128.746094 260.445312 128.390625 L 260.445312 127.417969 Z M 264.785156 125.988281 C 264.785156 125.632812 264.53125 125.476562 264.171875 125.582031 L 263.714844 125.734375 C 263.355469 125.835938 263.101562 126.191406 263.101562 126.550781 L 263.101562 127.519531 C 263.101562 127.878906 263.355469 128.03125 263.664062 127.929688 L 264.121094 127.777344 C 264.480469 127.675781 264.734375 127.316406 264.734375 126.960938 L 264.734375 125.988281 Z M 269.078125 124.558594 C 269.078125 124.203125 268.820312 124.046875 268.464844 124.148438 L 268.003906 124.304688 C 267.644531 124.40625 267.390625 124.761719 267.390625 125.121094 L 267.390625 126.089844 C 267.390625 126.449219 267.644531 126.601562 267.953125 126.5 L 268.414062 126.347656 C 268.769531 126.242188 269.023438 125.886719 269.023438 125.527344 L 269.023438 124.558594 Z M 220.410156 164.1875 L 226.945312 162.757812 L 242.113281 149.171875 L 224.390625 153.359375 C 223.726562 153.566406 223.066406 153.71875 222.453125 153.921875 L 220.410156 164.238281 Z M 220.410156 164.1875 " fill-opacity="1" fill-rule="nonzero"/></g></svg>