<svg xmlns="http://www.w3.org/2000/svg" xmlns:xlink="http://www.w3.org/1999/xlink" width="1080" zoomAndPan="magnify" viewBox="0 0 810 1012.49997" height="1350" preserveAspectRatio="xMidYMid meet" version="1.0"><defs><clipPath id="74296b1bc2"><path d="M 404 238 L 779 238 L 779 784.746094 L 404 784.746094 Z M 404 238 " clip-rule="nonzero"/></clipPath><clipPath id="efa7a2d030"><path d="M 0.796875 413 L 480 413 L 480 722 L 0.796875 722 Z M 0.796875 413 " clip-rule="nonzero"/></clipPath><clipPath id="4954915ca6"><path d="M 455 243 L 782.09375 243 L 782.09375 725 L 455 725 Z M 455 243 " clip-rule="nonzero"/></clipPath><clipPath id="828703db0d"><rect x="0" width="783" y="0" height="785"/></clipPath></defs><g transform="matrix(1, 0, 0, 1, 3, 134)"><g clip-path="url(#828703db0d)"><path fill="#113576" d="M 642.886719 101.671875 C 662.402344 135.378906 625.144531 188.609375 591.433594 195.703125 C 557.722656 204.574219 529.335938 185.058594 518.6875 151.347656 C 513.367188 135.378906 506.269531 83.925781 529.335938 78.605469 " fill-opacity="1" fill-rule="nonzero"/><path fill="#113576" d="M 434.5 699.648438 C 434.503906 699.648438 434.503906 699.648438 434.507812 699.648438 C 455 699.644531 472.605469 689.355469 486.832031 669.070312 C 535.113281 600.230469 559.160156 451.441406 536.320312 362.910156 C 527.605469 329.136719 513.101562 307.085938 493.210938 297.371094 C 483.023438 292.398438 473.476562 289.875 464.828125 289.875 C 414.066406 289.875 402.273438 372.75 393.660156 433.257812 C 392.871094 438.8125 392.117188 444.136719 391.359375 449.148438 C 379.460938 528.109375 360.300781 575.824219 334.417969 590.960938 C 330.386719 593.320312 326.328125 598.898438 329.902344 612.09375 C 338.238281 642.847656 386.980469 699.648438 434.5 699.648438 Z M 464.828125 293.425781 C 472.929688 293.425781 481.957031 295.828125 491.652344 300.558594 C 510.300781 309.667969 524.5625 331.53125 532.886719 363.796875 C 555.515625 451.515625 531.722656 598.882812 483.929688 667.035156 C 470.40625 686.320312 453.78125 696.097656 434.507812 696.101562 C 388.582031 696.105469 341.417969 641 333.328125 611.160156 C 331.679688 605.078125 330.839844 597.164062 336.207031 594.023438 C 363.066406 578.316406 382.804688 529.75 394.867188 449.671875 C 395.628906 444.65625 396.386719 439.320312 397.175781 433.757812 C 405.605469 374.535156 417.144531 293.425781 464.828125 293.425781 Z M 464.828125 293.425781 " fill-opacity="1" fill-rule="nonzero"/><path fill="#7bb984" d="M 415.6875 756.542969 C 385.769531 725.371094 433.230469 367.578125 434.550781 343.585938 C 434.550781 319.917969 442.535156 296 463.1875 279.535156 C 463.1875 279.535156 457.472656 393.832031 471.207031 405.683594 C 484.9375 417.5 575.777344 413.949219 586.921875 391.488281 C 597.996094 369.132812 585.539062 259.589844 617.582031 240.464844 C 621.449219 240.21875 625.671875 240.003906 630.179688 239.863281 C 630.25 239.828125 630.320312 239.828125 630.390625 239.863281 C 642.917969 240.113281 659.664062 241.105469 659.664062 241.105469 C 674.390625 243.164062 689.152344 247.917969 700.792969 258.066406 C 722.972656 277.371094 806.703125 705.09375 765.308594 751.046875 C 723.910156 797 445.609375 787.714844 415.6875 756.542969 Z M 415.6875 756.542969 " fill-opacity="1" fill-rule="nonzero"/><g clip-path="url(#74296b1bc2)"><path fill="#113576" d="M 591.929688 784.507812 C 591.933594 784.507812 591.933594 784.507812 591.9375 784.507812 C 626.097656 784.507812 739.648438 782.179688 766.625 752.234375 C 777.042969 740.664062 780.578125 705.984375 777.128906 649.15625 C 768.347656 504.542969 718.53125 271.152344 701.957031 256.726562 C 691.382812 247.503906 677.628906 241.820312 659.914062 239.34375 C 659.609375 239.320312 643.179688 238.351562 630.808594 238.09375 L 629.882812 238.058594 L 629.796875 238.097656 C 625.390625 238.238281 621.257812 238.445312 617.46875 238.691406 L 617.042969 238.722656 L 616.671875 238.9375 C 595.40625 251.636719 593.046875 301.351562 591.152344 341.304688 C 590.089844 363.648438 589.175781 382.941406 585.332031 390.703125 C 578.941406 403.585938 541.75 410.539062 510 410.535156 C 491.511719 410.535156 476.738281 408.101562 472.363281 404.339844 C 461.640625 395.078125 463.382812 311.167969 464.960938 279.621094 L 465.15625 275.691406 L 462.082031 278.144531 C 443.183594 293.210938 432.777344 316.449219 432.777344 343.585938 C 432.558594 347.515625 430.953125 361.6875 428.722656 381.308594 C 410.230469 544.257812 391.886719 734.308594 414.410156 757.773438 C 431.253906 775.324219 516.46875 784.507812 591.929688 784.507812 Z M 630.273438 241.632812 L 630.359375 241.632812 C 642.707031 241.878906 659.398438 242.863281 659.5625 242.871094 C 676.4375 245.234375 689.585938 250.648438 699.628906 259.402344 C 715.4375 273.167969 765.070312 509.023438 773.589844 649.371094 C 777.808594 718.925781 770.699219 742.410156 763.992188 749.855469 C 743.335938 772.789062 661.570312 780.960938 591.9375 780.960938 C 506.21875 780.960938 431 769.9375 416.96875 755.3125 C 392.710938 730.042969 421.433594 476.976562 432.246094 381.707031 C 434.5625 361.296875 436.09375 347.8125 436.320312 343.683594 C 436.324219 326.019531 440.742188 301.707031 461.226562 283.503906 C 460.222656 306.097656 457.097656 395.847656 470.042969 407.027344 C 475.183594 411.445312 490.113281 414.082031 510 414.082031 C 542.601562 414.085938 581.078125 407.261719 588.511719 392.28125 C 592.683594 383.855469 593.613281 364.214844 594.695312 341.472656 C 596.539062 302.605469 598.832031 254.300781 618.132812 242.207031 C 621.863281 241.972656 625.917969 241.769531 630.234375 241.636719 Z M 630.273438 241.632812 " fill-opacity="1" fill-rule="nonzero"/></g><path fill="#4e63ab" d="M 463.1875 279.535156 C 429.585938 318.308594 457.472656 393.832031 471.207031 405.683594 C 484.9375 417.5 575.78125 413.949219 586.921875 391.488281 C 597.996094 369.132812 585.539062 259.59375 617.582031 240.464844 C 607.824219 241.066406 496.789062 240.761719 463.1875 279.535156 Z M 463.1875 279.535156 " fill-opacity="1" fill-rule="nonzero"/><path fill="#113576" d="M 510 414.082031 C 542.601562 414.082031 581.082031 407.261719 588.515625 392.28125 C 592.683594 383.855469 593.617188 364.214844 594.695312 341.472656 C 596.550781 302.367188 598.859375 253.703125 618.492188 241.988281 L 624.765625 238.242188 L 617.472656 238.691406 C 616.660156 238.746094 615.132812 238.785156 612.992188 238.847656 C 513.914062 241.695312 476.113281 261.910156 461.847656 278.371094 C 449.558594 292.554688 444.015625 313.21875 445.824219 338.128906 C 448.125 369.847656 461.484375 399.632812 470.046875 407.027344 C 475.183594 411.445312 490.121094 414.082031 510 414.082031 Z M 612.179688 242.421875 C 595.050781 259.078125 592.90625 304.363281 591.152344 341.304688 C 590.089844 363.648438 589.175781 382.945312 585.332031 390.703125 C 578.941406 403.582031 541.75 410.535156 510 410.535156 C 491.511719 410.535156 476.738281 408.101562 472.363281 404.339844 C 464.457031 397.515625 451.5625 368.230469 449.363281 337.875 C 448.148438 321.171875 449.796875 297.695312 464.527344 280.695312 C 478.28125 264.820312 515.070312 245.324219 612.179688 242.421875 Z M 612.179688 242.421875 " fill-opacity="1" fill-rule="nonzero"/><path fill="#fed69f" d="M 85.15625 260.402344 C 92.144531 272 331.039062 268.394531 337.222656 260.402344 C 343.410156 252.410156 347.386719 126.582031 337.222656 106.964844 C 327.0625 87.347656 90.589844 97.15625 85.15625 106.964844 C 79.71875 116.773438 78.164062 248.808594 85.15625 260.402344 Z M 85.15625 260.402344 " fill-opacity="1" fill-rule="nonzero"/><path fill="#113576" d="M 195.003906 269.582031 C 230.636719 269.582031 333.515625 268.09375 338.628906 261.488281 C 345.699219 252.347656 348.726562 125.308594 338.800781 106.144531 C 333.539062 95.996094 280.855469 93.863281 237.589844 93.863281 C 186.214844 93.863281 88.058594 98.066406 83.605469 106.105469 C 78.460938 115.378906 75.535156 247.878906 83.640625 261.320312 C 87.753906 268.148438 146.472656 269.582031 195.003906 269.582031 Z M 237.589844 97.410156 C 305.925781 97.410156 333.050781 102.765625 335.644531 107.78125 C 346.046875 127.847656 340.804688 252.875 335.820312 259.320312 C 331.722656 262.429688 270.570312 266.035156 195.003906 266.035156 C 123.925781 266.035156 89.367188 262.734375 86.65625 259.457031 C 79.765625 248.027344 82.292969 115.789062 86.707031 107.824219 C 91.1875 103.339844 165.207031 97.410156 237.589844 97.410156 Z M 237.589844 97.410156 " fill-opacity="1" fill-rule="nonzero"/><path fill="#113576" d="M 271.664062 268.007812 C 280.71875 187.320312 270.15625 96.757812 270.046875 95.847656 L 266.527344 96.269531 C 266.636719 97.175781 277.144531 187.339844 268.136719 267.613281 Z M 271.664062 268.007812 " fill-opacity="1" fill-rule="nonzero"/><path fill="#4e63ab" d="M 176.597656 267.808594 L 176.597656 96.941406 L 163.027344 97.5625 L 163.027344 267.808594 Z M 176.597656 267.808594 " fill-opacity="1" fill-rule="nonzero"/><path fill="#113576" d="M 161.253906 269.582031 L 178.375 269.582031 L 178.375 95.085938 L 161.253906 95.871094 Z M 174.824219 266.035156 L 164.804688 266.035156 L 164.804688 99.257812 L 174.824219 98.800781 Z M 174.824219 266.035156 " fill-opacity="1" fill-rule="nonzero"/><path fill="#7bb984" d="M 18.523438 420.167969 C 31.136719 431.761719 462.175781 428.15625 473.332031 420.167969 C 484.492188 412.175781 491.671875 286.34375 473.332031 266.726562 C 454.996094 247.109375 28.332031 256.917969 18.523438 266.726562 C 8.71875 276.535156 5.914062 408.570312 18.523438 420.167969 Z M 18.523438 420.167969 " fill-opacity="1" fill-rule="nonzero"/><path fill="#113576" d="M 216.71875 429.347656 C 316.269531 429.347656 466.996094 426.886719 474.367188 421.609375 C 479.511719 417.921875 482.523438 397.652344 484.140625 381.296875 C 488.066406 341.644531 487.710938 279.503906 474.628906 265.515625 C 465.441406 255.691406 371.101562 253.628906 293.574219 253.628906 C 188.292969 253.628906 24.394531 258.351562 17.269531 265.472656 C 10.335938 272.40625 7.691406 326.277344 8.445312 362.503906 C 8.851562 381.851562 10.539062 415.234375 17.324219 421.476562 C 24.777344 428.324219 145.453125 429.347656 216.71875 429.347656 Z M 293.574219 257.175781 C 399.019531 257.175781 465.738281 261.199219 472.039062 267.941406 C 483.074219 279.742188 485.082031 335.789062 480.613281 380.949219 C 478.269531 404.609375 474.753906 416.972656 472.300781 418.726562 C 465.925781 422.421875 344.09375 425.800781 216.71875 425.800781 C 77.515625 425.800781 23.59375 422.0625 19.722656 418.859375 C 16.496094 415.890625 12.769531 399.503906 11.992188 362.425781 C 11.082031 318.792969 14.867188 272.894531 19.78125 267.984375 C 26.351562 263.292969 160.34375 257.175781 293.574219 257.175781 Z M 293.574219 257.175781 " fill-opacity="1" fill-rule="nonzero"/><path fill="#fed69f" d="M 18.53125 420.175781 C 21.890625 423.265625 54.867188 425.265625 101.683594 426.382812 C 109.28125 426.589844 117.253906 426.757812 125.53125 426.894531 C 257.632812 429.097656 465.625 425.671875 473.324219 420.175781 C 484.488281 412.171875 491.679688 286.34375 473.324219 266.734375 C 460.773438 253.300781 256.785156 253.671875 126.242188 258.355469 C 116.675781 258.730469 107.515625 259.101562 98.832031 259.476562 C 53.035156 261.546875 21.144531 264.125 18.53125 266.734375 C 8.726562 276.539062 5.914062 408.574219 18.53125 420.175781 Z M 18.53125 420.175781 " fill-opacity="1" fill-rule="nonzero"/><path fill="#113576" d="M 216.105469 429.34375 C 315.890625 429.34375 466.980469 426.890625 474.355469 421.625 C 479.800781 417.71875 482.835938 394.535156 484.164062 381.066406 C 488.058594 341.484375 487.671875 279.464844 474.621094 265.523438 C 465.4375 255.695312 370.960938 253.632812 293.320312 253.632812 C 239.375 253.632812 178.457031 254.707031 126.183594 256.582031 C 116.605469 256.957031 107.445312 257.332031 98.757812 257.703125 C 21.566406 261.195312 18.339844 264.421875 17.277344 265.480469 C 10.332031 272.429688 7.6875 326.355469 8.449219 362.613281 C 8.855469 381.925781 10.550781 415.25 17.328125 421.484375 C 18.757812 422.796875 22.539062 426.269531 101.640625 428.160156 C 109.238281 428.363281 117.214844 428.535156 125.503906 428.667969 C 152.433594 429.121094 182.917969 429.34375 216.105469 429.34375 Z M 293.320312 257.179688 C 398.921875 257.179688 465.730469 261.203125 472.03125 267.945312 C 483.039062 279.707031 485.066406 335.640625 480.632812 380.71875 C 478.285156 404.527344 474.753906 416.96875 472.292969 418.738281 C 465.910156 422.421875 343.789062 425.796875 216.105469 425.796875 C 182.933594 425.796875 152.472656 425.570312 125.5625 425.121094 C 117.285156 424.984375 109.324219 424.8125 101.730469 424.609375 C 30.015625 422.894531 20.832031 419.78125 19.726562 418.863281 C 16.503906 415.902344 12.777344 399.546875 12 362.535156 C 11.082031 318.859375 14.867188 272.914062 19.785156 267.988281 C 20.527344 267.464844 28.097656 264.449219 98.914062 261.246094 C 107.589844 260.875 116.75 260.503906 126.316406 260.128906 C 178.542969 258.253906 239.417969 257.179688 293.320312 257.179688 Z M 293.320312 257.179688 " fill-opacity="1" fill-rule="nonzero"/><path fill="#113576" d="M 381.152344 426.148438 C 397.746094 360.933594 377.671875 257.109375 377.464844 256.066406 L 373.988281 256.75 C 374.1875 257.785156 394.113281 360.835938 377.714844 425.277344 Z M 381.152344 426.148438 " fill-opacity="1" fill-rule="nonzero"/><path fill="#7bb984" d="M 311.539062 256.40625 C 317.195312 264.167969 319.527344 426.691406 311.539062 426.964844 C 303.554688 427.238281 291.183594 426.96875 291.183594 426.96875 C 288.050781 422.042969 284.964844 257.410156 288.921875 256.40625 C 292.882812 255.402344 311.539062 256.40625 311.539062 256.40625 Z M 311.539062 256.40625 " fill-opacity="1" fill-rule="nonzero"/><path fill="#113576" d="M 302.636719 428.859375 C 305.695312 428.859375 308.898438 428.828125 311.605469 428.738281 C 312.667969 428.703125 313.53125 428.023438 314.167969 426.714844 C 320.652344 413.414062 319.617188 264.480469 312.976562 255.367188 L 312.480469 254.683594 L 311.636719 254.636719 C 311.550781 254.632812 303.21875 254.1875 296.546875 254.1875 C 292.449219 254.1875 289.8125 254.351562 288.488281 254.691406 C 288.019531 254.808594 287.378906 255.15625 286.988281 256.136719 C 283.542969 264.820312 286.015625 422.152344 289.6875 427.921875 L 290.199219 428.71875 L 291.148438 428.742188 C 291.148438 428.742188 296.613281 428.859375 302.636719 428.859375 Z M 310.980469 425.207031 C 308.425781 425.289062 305.464844 425.3125 302.636719 425.3125 C 298.382812 425.3125 294.40625 425.25 292.464844 425.214844 C 289.609375 411.417969 287.558594 269.683594 290.128906 257.992188 C 291.105469 257.867188 292.980469 257.734375 296.550781 257.734375 C 301.773438 257.734375 308.046875 258.011719 310.449219 258.128906 C 316.007812 272.082031 316.558594 415.890625 310.980469 425.207031 Z M 310.980469 425.207031 " fill-opacity="1" fill-rule="nonzero"/><path fill="#7bb984" d="M 95.941406 426.261719 C 97.808594 426.296875 99.742188 426.363281 101.675781 426.398438 C 108.054688 426.566406 114.667969 426.703125 121.519531 426.839844 C 124.472656 385.484375 124.574219 298.332031 122.335938 258.503906 C 114.160156 258.84375 106.324219 259.179688 98.824219 259.488281 C 96.957031 259.554688 95.125 259.65625 93.296875 259.757812 C 92.550781 299.585938 94.078125 384.976562 95.941406 426.261719 Z M 95.941406 426.261719 " fill-opacity="1" fill-rule="nonzero"/><path fill="#113576" d="M 123.171875 428.644531 L 123.292969 426.960938 C 126.339844 384.285156 126.285156 297.152344 124.105469 258.402344 L 124.007812 256.65625 L 98.753906 257.710938 C 97.042969 257.773438 95.347656 257.871094 93.660156 257.957031 L 91.550781 258.074219 L 91.519531 259.722656 C 90.761719 300.179688 92.375 386.59375 94.171875 426.335938 L 94.242188 428 L 101.644531 428.167969 C 108.011719 428.335938 114.628906 428.476562 121.484375 428.609375 Z M 120.660156 260.351562 C 122.710938 299.292969 122.742188 382.550781 119.867188 425.027344 C 113.621094 424.902344 107.574219 424.773438 101.722656 424.621094 L 97.640625 424.527344 C 95.902344 384.683594 94.367188 301.921875 95.042969 261.4375 C 96.3125 261.371094 97.59375 261.308594 98.890625 261.261719 Z M 120.660156 260.351562 " fill-opacity="1" fill-rule="nonzero"/><path fill="#113576" d="M 54.480469 333.0625 C 62.171875 333.0625 80.316406 332.785156 82.691406 330.238281 C 85.332031 327.40625 86.199219 305.953125 85.636719 292.421875 C 85.242188 282.910156 84.230469 277.351562 82.636719 275.90625 C 80.210938 273.707031 67.484375 273.242188 57.234375 273.242188 C 45.277344 273.242188 26.386719 274.0625 23.808594 275.820312 C 22.199219 276.917969 21.164062 283.148438 20.722656 294.339844 C 20.394531 302.78125 20.234375 327.507812 23.746094 330.332031 C 27.046875 332.984375 51.683594 333.0625 54.480469 333.0625 Z M 57.234375 275.160156 C 73.273438 275.160156 80.25 276.324219 81.347656 277.324219 C 81.652344 277.597656 83.1875 279.617188 83.722656 292.503906 C 84.40625 308.875 82.90625 327.203125 81.292969 328.933594 C 80.277344 330.007812 70.535156 331.148438 54.484375 331.148438 C 37.789062 331.148438 26.359375 329.976562 24.949219 328.839844 C 24.242188 328.277344 22.832031 323.351562 22.515625 308.769531 C 22.164062 292.320312 23.484375 278.640625 24.898438 277.398438 C 26.410156 276.367188 40.871094 275.160156 57.234375 275.160156 Z M 57.234375 275.160156 " fill-opacity="1" fill-rule="nonzero"/><path fill="#113576" d="M 52.960938 326.316406 C 64.421875 326.316406 75.957031 325.335938 79.476562 323.355469 C 80.398438 322.839844 80.726562 321.671875 80.207031 320.75 C 79.691406 319.828125 78.523438 319.5 77.597656 320.019531 C 71.261719 323.582031 32.703125 322.796875 28.914062 320.121094 C 28.046875 319.515625 26.855469 319.71875 26.246094 320.582031 C 25.632812 321.449219 25.839844 322.644531 26.707031 323.253906 C 29.589844 325.289062 41.234375 326.316406 52.960938 326.316406 Z M 52.960938 326.316406 " fill-opacity="1" fill-rule="nonzero"/><path fill="#113576" d="M 56.515625 297.003906 C 55.785156 295.960938 63.5625 280.128906 66.15625 280.3125 C 68.746094 280.496094 76.265625 296.199219 75.792969 297.003906 C 75.320312 297.808594 70.320312 296.292969 69.488281 297.003906 C 68.65625 297.71875 69.488281 316.605469 69.488281 316.605469 C 69.488281 318.445312 62.820312 318.445312 62.820312 316.605469 C 62.820312 316.605469 63.378906 297.960938 62.820312 297.003906 C 62.265625 296.050781 57.246094 298.054688 56.515625 297.003906 Z M 56.515625 297.003906 " fill-opacity="1" fill-rule="nonzero"/><path fill="#113576" d="M 30.589844 297.003906 C 29.765625 296.144531 37.917969 280.589844 40.230469 280.3125 C 42.546875 280.035156 50.34375 296.015625 49.871094 297.003906 C 49.398438 297.996094 44.488281 296.199219 43.5625 297.003906 C 42.636719 297.808594 44.5625 315.585938 43.5625 316.605469 C 42.5625 317.625 37.730469 317.714844 36.898438 316.605469 C 36.0625 315.492188 37.546875 297.867188 36.898438 297.003906 C 36.25 296.144531 31.414062 297.867188 30.589844 297.003906 Z M 30.589844 297.003906 " fill-opacity="1" fill-rule="nonzero"/><path fill="#113576" d="M 52.507812 402.488281 C 60.199219 402.488281 78.34375 402.214844 80.71875 399.667969 C 83.363281 396.832031 84.226562 375.367188 83.664062 361.835938 C 83.265625 352.332031 82.257812 346.777344 80.660156 345.332031 C 78.234375 343.132812 65.507812 342.671875 55.257812 342.671875 C 43.304688 342.671875 24.410156 343.488281 21.832031 345.25 C 20.226562 346.34375 19.1875 352.574219 18.75 363.769531 C 18.417969 372.207031 18.261719 396.9375 21.769531 399.757812 C 25.070312 402.414062 49.710938 402.488281 52.507812 402.488281 Z M 55.261719 344.585938 C 71.300781 344.585938 78.277344 345.75 79.375 346.75 C 79.679688 347.027344 81.210938 349.046875 81.75 361.914062 C 82.433594 378.292969 80.933594 396.628906 79.316406 398.363281 C 78.304688 399.433594 68.5625 400.578125 52.507812 400.578125 C 35.816406 400.578125 24.382812 399.402344 22.972656 398.269531 C 22.269531 397.703125 20.855469 392.78125 20.542969 378.199219 C 20.1875 361.75 21.507812 348.066406 22.921875 346.828125 C 24.433594 345.792969 38.898438 344.585938 55.261719 344.585938 Z M 55.261719 344.585938 " fill-opacity="1" fill-rule="nonzero"/><path fill="#113576" d="M 39.277344 353.472656 C 37.8125 355.617188 38.195312 370.765625 42.925781 374.121094 C 47.324219 377.238281 49.09375 374.9375 49.246094 377.003906 C 49.398438 379.613281 50.3125 391.617188 49.570312 392.535156 C 48.824219 393.457031 40.839844 392.519531 41.296875 394.265625 C 41.734375 395.929688 45.902344 395.84375 47.597656 395.929688 C 49.210938 396.015625 52.65625 396.015625 54.273438 395.929688 C 55.964844 395.84375 60.136719 395.929688 60.570312 394.265625 C 61.027344 392.519531 53.429688 392.648438 52.886719 392.105469 C 52.347656 391.558594 52.46875 379.613281 52.625 377.007812 C 52.773438 374.941406 54.546875 377.242188 58.945312 374.121094 C 63.671875 370.769531 64.648438 353.859375 63.378906 352.488281 C 62.105469 351.109375 40.746094 351.324219 39.277344 353.472656 Z M 39.277344 353.472656 " fill-opacity="1" fill-rule="nonzero"/><path fill="#fed69f" d="M 13.632812 710.417969 C 30.0625 725.523438 448.261719 720.828125 462.796875 710.417969 C 477.332031 700.007812 486.6875 455.394531 462.796875 429.839844 C 438.90625 404.289062 26.410156 417.066406 13.632812 429.839844 C 0.859375 442.617188 -2.792969 695.3125 13.632812 710.417969 Z M 13.632812 710.417969 " fill-opacity="1" fill-rule="nonzero"/><g clip-path="url(#efa7a2d030)"><path fill="#113576" d="M 209.785156 721.839844 C 306.621094 721.839844 454.324219 718.671875 463.828125 711.859375 C 465.339844 710.777344 469.941406 707.484375 474.28125 663.710938 C 481.363281 592.246094 482.875 448.71875 464.09375 428.625 C 451.636719 415.300781 345.765625 413.3125 283.769531 413.3125 C 167.761719 413.3125 20.835938 420.128906 12.378906 428.585938 C 3.21875 437.746094 -0.300781 543.644531 1.210938 615.53125 C 2.050781 655.476562 4.675781 704.59375 12.429688 711.726562 C 22.359375 720.855469 153.757812 721.839844 209.785156 721.839844 Z M 283.769531 416.863281 C 386.75 416.863281 453.195312 422.164062 461.5 431.054688 C 478.152344 448.863281 478.589844 584.257812 470.75 663.359375 C 466.769531 703.503906 462.566406 708.402344 461.765625 708.980469 C 454.957031 713.855469 334.855469 718.292969 209.785156 718.292969 C 97.421875 718.292969 20.898438 714.691406 14.835938 709.113281 C 9.65625 704.355469 5.886719 669.339844 4.757812 615.457031 C 2.984375 530.933594 8.09375 437.890625 14.886719 431.09375 C 21.199219 424.882812 152.71875 416.863281 283.769531 416.863281 Z M 283.769531 416.863281 " fill-opacity="1" fill-rule="nonzero"/></g><path fill="#113576" d="M 342.375 718.738281 C 361.671875 591.757812 342.582031 417.242188 342.386719 415.492188 L 338.859375 415.886719 C 339.054688 417.628906 358.09375 591.691406 338.871094 718.203125 Z M 342.375 718.738281 " fill-opacity="1" fill-rule="nonzero"/><path fill="#4e63ab" d="M 203.535156 583.410156 L 203.535156 416.046875 L 141.28125 418.027344 L 145.859375 583.410156 L 158.300781 574.359375 L 165.085938 583.410156 L 177.523438 573.230469 L 185.441406 583.410156 L 193.59375 574.359375 Z M 203.535156 583.410156 " fill-opacity="1" fill-rule="nonzero"/><path fill="#113576" d="M 205.308594 587.421875 L 205.308594 414.214844 L 139.457031 416.308594 L 144.179688 586.828125 L 157.929688 576.824219 L 164.78125 585.957031 L 177.242188 575.757812 L 185.339844 586.171875 L 193.71875 576.871094 Z M 177.808594 570.707031 L 165.394531 580.863281 L 158.671875 571.898438 L 147.539062 579.996094 L 143.101562 419.75 L 201.761719 417.882812 L 201.761719 579.398438 L 193.46875 571.851562 L 185.539062 580.648438 Z M 177.808594 570.707031 " fill-opacity="1" fill-rule="nonzero"/><path fill="#113576" d="M 342.269531 719.132812 C 375.347656 636.335938 414.429688 552.351562 422.695312 554.742188 C 432.640625 557.800781 451.496094 652.027344 461.046875 710.703125 L 464.546875 710.132812 C 460.363281 684.429688 438.734375 555.964844 423.742188 551.351562 C 420.542969 550.351562 413.070312 548.039062 374.792969 633.335938 C 356.179688 674.8125 339.148438 717.386719 338.976562 717.8125 Z M 342.269531 719.132812 " fill-opacity="1" fill-rule="nonzero"/><path fill="#113576" d="M 433.160156 567.84375 C 451.578125 528.921875 464.035156 434.085938 464.558594 430.070312 L 461.035156 429.613281 C 460.910156 430.589844 448.132812 527.910156 429.953125 566.324219 Z M 433.160156 567.84375 " fill-opacity="1" fill-rule="nonzero"/><path fill="#113576" d="M 408.449219 568.957031 L 410.671875 566.195312 C 393.25 552.136719 342.792969 416.441406 342.285156 415.074219 L 338.957031 416.308594 C 341.046875 421.933594 390.269531 554.292969 408.449219 568.957031 Z M 408.449219 568.957031 " fill-opacity="1" fill-rule="nonzero"/><path fill="#7bb984" d="M 405.226562 601.601562 C 416.714844 586.28125 444.804688 565.214844 458.847656 551.171875 C 452.460938 553.726562 446.078125 553.726562 438.417969 553.726562 C 440.972656 548.617188 442.246094 540.957031 446.078125 535.851562 C 442.25 537.128906 435.863281 535.851562 432.035156 538.40625 C 433.308594 534.578125 434.585938 526.917969 435.863281 523.085938 C 423.097656 534.574219 396.285156 560.324219 383.519531 573.09375 L 393.730469 575.386719 L 393.09375 590.75 L 406.496094 586.019531 Z M 405.226562 601.601562 " fill-opacity="1" fill-rule="nonzero"/><path fill="#113576" d="M 402.957031 607.585938 L 406.648438 602.664062 C 413.730469 593.214844 427.695312 581.148438 440.011719 570.503906 C 447.625 563.921875 454.816406 557.710938 460.097656 552.425781 L 466.210938 546.3125 L 458.1875 549.523438 C 452.859375 551.652344 447.539062 551.914062 441.132812 551.945312 C 441.683594 550.554688 442.183594 549.074219 442.699219 547.542969 C 443.984375 543.75 445.3125 539.828125 447.5 536.914062 L 450.90625 532.375 L 445.519531 534.167969 C 444.203125 534.605469 442.375 534.699219 440.4375 534.796875 C 438.585938 534.890625 436.582031 534.992188 434.695312 535.429688 C 435.027344 534.0625 435.359375 532.582031 435.679688 531.128906 C 436.300781 528.347656 436.9375 525.472656 437.546875 523.644531 L 439.667969 517.269531 L 434.675781 521.761719 C 422.0625 533.113281 395.316406 558.78125 382.265625 571.835938 L 379.988281 574.113281 L 391.902344 576.789062 L 391.21875 593.289062 L 404.511719 588.601562 Z M 452.53125 554.746094 C 448.152344 558.78125 443.027344 563.210938 437.695312 567.820312 C 426.574219 577.429688 415.128906 587.316406 407.460938 596.066406 L 408.496094 583.4375 L 394.980469 588.207031 L 395.570312 573.980469 L 387.0625 572.070312 C 399.195312 560.035156 419.871094 540.1875 432.652344 528.410156 C 432.507812 529.058594 432.359375 529.714844 432.21875 530.363281 C 431.597656 533.140625 430.960938 536.015625 430.351562 537.847656 L 428.71875 542.75 L 433.019531 539.882812 C 434.898438 538.632812 437.804688 538.484375 440.617188 538.34375 C 441.273438 538.3125 441.917969 538.277344 442.546875 538.230469 C 441.234375 540.816406 440.273438 543.644531 439.339844 546.410156 C 438.527344 548.808594 437.757812 551.074219 436.828125 552.929688 L 435.542969 555.5 L 438.417969 555.5 C 443.472656 555.5 448.074219 555.5 452.53125 554.746094 Z M 452.53125 554.746094 " fill-opacity="1" fill-rule="nonzero"/><path fill="#113576" d="M 67.3125 464.476562 C 67.636719 464.476562 67.972656 464.402344 68.285156 464.246094 C 69.355469 463.707031 69.785156 462.402344 69.246094 461.332031 C 67.964844 458.78125 61.195312 446.050781 54.042969 445.957031 C 51.238281 445.941406 48.160156 447.503906 44.609375 450.792969 C 43.730469 451.609375 43.675781 452.980469 44.492188 453.859375 C 45.308594 454.742188 46.683594 454.789062 47.558594 453.976562 C 51.046875 450.746094 53.089844 450.265625 53.988281 450.296875 C 57.316406 450.339844 62.75 458.070312 65.375 463.28125 C 65.753906 464.039062 66.515625 464.476562 67.3125 464.476562 Z M 67.3125 464.476562 " fill-opacity="1" fill-rule="nonzero"/><path fill="#113576" d="M 52.648438 455.601562 C 52.730469 456.878906 40.832031 460.445312 39.617188 459.835938 C 38.402344 459.230469 41.066406 446.621094 42.460938 446.433594 C 43.859375 446.242188 52.570312 454.324219 52.648438 455.601562 Z M 52.648438 455.601562 " fill-opacity="1" fill-rule="nonzero"/><path fill="#113576" d="M 39.058594 490.128906 C 40.164062 490.128906 41.34375 490.09375 42.605469 490.019531 C 43.800781 489.953125 44.71875 488.929688 44.648438 487.730469 C 44.582031 486.535156 43.535156 485.648438 42.359375 485.6875 C 35.339844 486.085938 32.632812 485.203125 31.644531 484.644531 C 31.589844 484.617188 31.472656 484.546875 31.375 484.179688 C 30.515625 480.902344 34.949219 471.464844 38.371094 465.808594 C 38.992188 464.78125 38.664062 463.449219 37.636719 462.828125 C 36.613281 462.203125 35.277344 462.535156 34.65625 463.5625 C 33.121094 466.097656 25.546875 479.066406 27.179688 485.28125 C 27.546875 486.683594 28.355469 487.769531 29.511719 488.425781 C 31.527344 489.566406 34.671875 490.128906 39.058594 490.128906 Z M 39.058594 490.128906 " fill-opacity="1" fill-rule="nonzero"/><path fill="#113576" d="M 39.785156 481.132812 C 40.515625 479.726562 51.996094 485.074219 52.285156 486.75 C 52.578125 488.429688 42.667969 495.296875 41.171875 494.769531 C 39.679688 494.242188 39.058594 482.542969 39.785156 481.132812 Z M 39.785156 481.132812 " fill-opacity="1" fill-rule="nonzero"/><path fill="#113576" d="M 68.667969 491.191406 C 73.550781 491.191406 78.46875 490.339844 80.054688 487.210938 C 81.398438 484.566406 80.570312 480.621094 77.453125 474.804688 C 76.890625 473.746094 75.578125 473.347656 74.519531 473.914062 C 73.460938 474.480469 73.0625 475.796875 73.628906 476.851562 C 77.03125 483.203125 76.28125 485.054688 76.1875 485.246094 C 75.285156 487.027344 67.109375 487.355469 59.03125 485.933594 C 57.847656 485.71875 56.726562 486.515625 56.515625 487.695312 C 56.308594 488.875 57.097656 490 58.277344 490.207031 C 60.292969 490.5625 64.46875 491.191406 68.667969 491.191406 Z M 68.667969 491.191406 " fill-opacity="1" fill-rule="nonzero"/><path fill="#113576" d="M 70.628906 481.195312 C 69.304688 480.582031 68.6875 468.609375 70.273438 467.496094 C 71.859375 466.382812 82.171875 472.636719 82.316406 474.03125 C 82.460938 475.429688 71.957031 481.804688 70.628906 481.195312 Z M 70.628906 481.195312 " fill-opacity="1" fill-rule="nonzero"/><path fill="#4e63ab" d="M 485.304688 459.421875 C 489.382812 459.953125 506.96875 460.929688 517.058594 460.851562 C 527.152344 460.769531 555.714844 452.101562 559.164062 452.367188 C 562.613281 452.628906 561.175781 423.949219 556.578125 425.285156 C 551.980469 426.621094 522.792969 434.730469 511.53125 434.050781 C 500.269531 433.371094 486.765625 432.546875 482.71875 432.339844 C 478.671875 432.132812 481.226562 458.894531 485.304688 459.421875 Z M 485.304688 459.421875 " fill-opacity="1" fill-rule="nonzero"/><path fill="#113576" d="M 515.855469 462.628906 L 517.074219 462.625 C 523.289062 462.578125 535.851562 459.484375 545.941406 456.996094 C 551.660156 455.589844 557.574219 454.132812 558.996094 454.132812 C 559.667969 454.082031 560.769531 453.953125 561.515625 452.664062 C 563.949219 448.460938 562.921875 430.746094 559.949219 425.59375 C 558.933594 423.835938 557.722656 423.464844 556.890625 423.464844 L 556.085938 423.578125 C 547.730469 426.011719 523.703125 432.316406 512.96875 432.316406 L 512.964844 432.316406 C 512.5 432.316406 512.054688 432.304688 511.640625 432.28125 L 506.804688 431.988281 C 496.773438 431.382812 486.292969 430.75 482.808594 430.574219 C 479.417969 430.574219 479.101562 435.519531 478.976562 437.378906 C 478.625 442.882812 479.78125 460.496094 485.078125 461.183594 C 489.261719 461.726562 505.722656 462.628906 515.855469 462.628906 Z M 558.597656 450.617188 C 556.378906 450.792969 552.074219 451.832031 545.09375 453.554688 C 535.183594 455.992188 522.847656 459.03125 517.050781 459.078125 L 515.859375 459.082031 C 505.429688 459.082031 489.125 458.128906 485.535156 457.664062 C 485.222656 457.332031 483.78125 454.195312 482.917969 447.171875 C 482.101562 440.460938 482.492188 435.484375 483.113281 434.136719 C 486.929688 434.34375 496.964844 434.949219 506.589844 435.53125 L 511.425781 435.820312 C 511.910156 435.851562 512.421875 435.867188 512.96875 435.867188 L 512.972656 435.867188 C 525.617188 435.863281 553.277344 428.074219 556.722656 427.089844 C 558.875 429.570312 560.257812 447.097656 558.597656 450.617188 Z M 558.597656 450.617188 " fill-opacity="1" fill-rule="nonzero"/><path fill="#c77951" d="M 433.949219 660.59375 C 425.820312 662.714844 432.304688 648.019531 398.410156 653 C 371.109375 657.011719 361.222656 643.25 352.902344 646.601562 C 344.582031 649.953125 351.628906 660.773438 357.097656 664.972656 C 367.859375 673.234375 388.136719 676.382812 381.019531 688.285156 C 370.285156 706.230469 330.546875 698.449219 309.441406 707.421875 C 271.152344 723.703125 308.222656 723.609375 329.257812 722.992188 C 343.613281 722.574219 400.695312 728.667969 425.542969 723.183594 C 450.390625 717.699219 488.710938 694.390625 496.136719 686.027344 C 503.5625 677.660156 482.175781 632.480469 473.769531 637.835938 C 465.363281 643.195312 442.074219 658.472656 433.949219 660.59375 Z M 433.949219 660.59375 " fill-opacity="1" fill-rule="nonzero"/><path fill="#113576" d="M 394.964844 727.261719 C 408.65625 727.261719 418.78125 726.496094 425.925781 724.917969 C 450.867188 719.414062 489.703125 695.953125 497.46875 687.207031 C 503.1875 680.757812 494.882812 661.3125 493.160156 657.480469 C 491.519531 653.828125 482.949219 635.625 475.289062 635.625 C 474.394531 635.625 473.5625 635.867188 472.820312 636.34375 L 469.933594 638.191406 C 460.398438 644.304688 440.558594 657.039062 433.5 658.878906 C 433.109375 658.980469 432.765625 659.03125 432.476562 659.03125 C 431.613281 659.03125 431.144531 658.585938 429.910156 657.207031 C 427.421875 654.414062 423.652344 650.191406 410.882812 650.191406 C 407.207031 650.191406 402.921875 650.546875 398.15625 651.246094 C 394.898438 651.722656 391.707031 651.964844 388.667969 651.964844 C 378.171875 651.964844 371.0625 649.171875 365.351562 646.925781 C 360.007812 644.828125 355.921875 643.480469 352.246094 644.957031 C 348.683594 646.390625 347.632812 648.910156 347.378906 650.769531 C 346.613281 656.375 351.96875 663.273438 356.015625 666.378906 C 359.453125 669.015625 363.703125 671.097656 367.8125 673.113281 C 373.816406 676.054688 379.488281 678.832031 380.546875 682.414062 C 380.972656 683.855469 380.632812 685.480469 379.496094 687.375 C 373.460938 697.46875 356.457031 698.882812 340.015625 700.253906 C 328.863281 701.179688 317.332031 702.140625 308.75 705.789062 C 292.265625 712.800781 290.59375 716.457031 291.136719 719.105469 C 291.753906 722.144531 295.414062 724.957031 317.820312 724.957031 C 321.816406 724.957031 325.785156 724.867188 329.308594 724.765625 C 333.496094 724.648438 341.644531 725.097656 351.289062 725.636719 C 364.183594 726.363281 380.234375 727.261719 394.964844 727.261719 Z M 475.289062 639.171875 C 478.113281 639.171875 484.359375 646.5625 489.921875 658.933594 C 495.355469 671.019531 497.414062 681.917969 494.808594 684.847656 C 487.292969 693.316406 449.507812 716.078125 425.160156 721.453125 C 418.273438 722.976562 408.390625 723.710938 394.964844 723.710938 C 380.335938 723.710938 364.332031 722.816406 351.480469 722.097656 C 341.734375 721.550781 333.515625 721.085938 329.203125 721.222656 C 325.710938 721.324219 321.777344 721.414062 317.820312 721.414062 C 295.789062 721.414062 294.648438 718.523438 294.609375 718.398438 C 294.609375 718.375 294.574219 715.671875 310.132812 709.054688 C 318.191406 705.632812 329.433594 704.695312 340.304688 703.789062 C 357.644531 702.347656 375.570312 700.851562 382.535156 689.199219 C 384.1875 686.441406 384.660156 683.816406 383.945312 681.40625 C 382.445312 676.332031 376.089844 673.222656 369.371094 669.929688 C 365.417969 667.992188 361.328125 665.988281 358.175781 663.566406 C 354.335938 660.621094 350.398438 654.835938 350.886719 651.253906 C 351.007812 650.378906 351.414062 649.117188 353.5625 648.25 C 356.152344 647.210938 359.460938 648.433594 364.050781 650.230469 C 369.722656 652.464844 377.496094 655.515625 388.664062 655.515625 C 391.875 655.515625 395.238281 655.265625 398.664062 654.761719 C 403.265625 654.082031 407.371094 653.742188 410.878906 653.742188 C 422.058594 653.742188 425.066406 657.109375 427.257812 659.570312 C 428.582031 661.050781 429.949219 662.582031 432.472656 662.582031 C 433.070312 662.582031 433.703125 662.492188 434.390625 662.308594 C 441.996094 660.328125 461.410156 647.867188 471.847656 641.175781 L 474.71875 639.335938 C 474.902344 639.222656 475.074219 639.171875 475.289062 639.171875 Z M 475.289062 639.171875 " fill-opacity="1" fill-rule="nonzero"/><path fill="#4e63ab" d="M 487.164062 706.640625 C 487.164062 706.640625 474.84375 719.742188 462.605469 716.585938 C 450.367188 713.4375 440.738281 649.378906 446.917969 643.082031 C 453.097656 636.789062 468.53125 631.09375 468.53125 631.09375 " fill-opacity="1" fill-rule="nonzero"/><path fill="#113576" d="M 466.558594 718.855469 C 477.96875 718.855469 487.988281 708.363281 488.460938 707.859375 L 485.875 705.425781 C 485.757812 705.550781 474.097656 717.734375 463.050781 714.871094 C 461.867188 714.566406 457.644531 712.242188 452.882812 695.113281 C 446.671875 672.785156 445.425781 647.144531 448.1875 644.328125 C 454.023438 638.382812 468.996094 632.808594 469.144531 632.753906 L 467.917969 629.429688 C 467.269531 629.664062 452.039062 635.335938 445.65625 641.84375 C 440.5625 647.03125 444.394531 677.832031 449.460938 696.066406 C 453.230469 709.625 457.503906 717.105469 462.160156 718.308594 C 463.636719 718.6875 465.113281 718.855469 466.558594 718.855469 Z M 466.558594 718.855469 " fill-opacity="1" fill-rule="nonzero"/><path fill="#4e63ab" d="M 690.398438 247.074219 C 769.890625 264.710938 802.628906 484.449219 764.164062 581.976562 C 725.695312 679.5 530.582031 735.90625 490.910156 720.734375 C 451.234375 705.566406 449.820312 628.628906 468.597656 615.625 C 487.378906 602.621094 588.605469 568.972656 612.210938 546.304688 C 635.820312 523.640625 638.734375 466.679688 633.359375 404.519531 C 627.980469 342.359375 610.910156 229.4375 690.398438 247.074219 Z M 690.398438 247.074219 " fill-opacity="1" fill-rule="nonzero"/><g clip-path="url(#4954915ca6)"><path fill="#113576" d="M 508.902344 724.960938 C 508.90625 724.960938 508.90625 724.960938 508.910156 724.960938 C 570.234375 724.953125 730.886719 671.175781 765.8125 582.625 C 794.484375 509.941406 783.902344 370.277344 744.039062 295.246094 C 728.8125 266.597656 710.898438 249.804688 690.78125 245.339844 C 670.421875 240.8125 654.675781 244.496094 643.996094 256.234375 C 620.046875 282.566406 625.925781 344.550781 630.21875 389.8125 C 630.710938 395.003906 631.1875 399.984375 631.589844 404.671875 C 637.976562 478.542969 631.042969 525.765625 610.984375 545.027344 C 596.808594 558.636719 553.042969 576.742188 517.878906 591.285156 C 494.898438 600.789062 475.054688 608.996094 467.589844 614.164062 C 457.980469 620.820312 453.082031 642.847656 455.941406 666.546875 C 459.328125 694.589844 472.164062 715.464844 490.277344 722.390625 C 494.730469 724.097656 500.996094 724.960938 508.902344 724.960938 Z M 674.878906 247 C 679.523438 247 684.617188 247.605469 690.011719 248.804688 C 708.796875 252.972656 726.398438 269.605469 740.90625 296.910156 C 780.375 371.199219 790.875 509.421875 762.515625 581.324219 C 728.132812 668.476562 569.496094 721.40625 508.910156 721.414062 C 508.90625 721.414062 508.902344 721.414062 508.902344 721.414062 C 501.429688 721.414062 495.589844 720.625 491.542969 719.078125 C 474.683594 712.632812 462.691406 692.832031 459.464844 666.121094 C 456.796875 644.015625 461.15625 622.933594 469.609375 617.085938 C 476.761719 612.132812 496.445312 603.988281 519.234375 594.5625 C 554.675781 579.90625 598.785156 561.664062 613.445312 547.582031 C 634.316406 527.542969 641.609375 479.355469 635.128906 404.363281 C 634.722656 399.667969 634.25 394.675781 633.753906 389.476562 C 629.523438 344.875 623.726562 283.789062 646.621094 258.621094 C 653.734375 250.800781 662.976562 247 674.878906 247 Z M 674.878906 247 " fill-opacity="1" fill-rule="nonzero"/></g><path fill="#113576" d="M 672.4375 563.464844 L 674.40625 560.511719 C 673.164062 559.683594 671.742188 558.621094 670.136719 557.429688 C 659.300781 549.375 639.121094 534.378906 611.59375 544.640625 L 612.832031 547.96875 C 638.582031 538.359375 657.003906 552.085938 668.019531 560.277344 C 669.679688 561.511719 671.152344 562.605469 672.4375 563.464844 Z M 672.4375 563.464844 " fill-opacity="1" fill-rule="nonzero"/><path fill="#c77951" d="M 519.144531 296.746094 C 514.183594 292.898438 498.621094 248.425781 498.621094 248.425781 L 581.289062 190.535156 C 581.289062 211.492188 591.136719 244.703125 591.136719 257.550781 C 591.136719 284.699219 524.105469 300.59375 519.144531 296.746094 Z M 519.144531 296.746094 " fill-opacity="1" fill-rule="nonzero"/><path fill="#113576" d="M 522.34375 299.09375 C 536.953125 299.089844 592.914062 283.480469 592.914062 257.550781 C 592.914062 251.734375 591.03125 242.246094 588.847656 231.257812 C 586.136719 217.597656 583.066406 202.113281 583.066406 190.535156 C 583.066406 189.875 582.695312 189.265625 582.109375 188.960938 C 581.527344 188.65625 580.816406 188.699219 580.273438 189.082031 L 497.601562 246.972656 C 496.953125 247.425781 496.683594 248.261719 496.949219 249.007812 C 499.574219 256.519531 512.941406 294.179688 518.058594 298.148438 C 518.898438 298.804688 520.21875 299.09375 522.34375 299.09375 Z M 579.589844 193.890625 C 580.078125 205.308594 582.875 219.390625 585.367188 231.949219 C 587.421875 242.304688 589.363281 252.082031 589.363281 257.550781 C 589.363281 280.824219 535.757812 295.542969 522.34375 295.542969 C 520.652344 295.542969 520.195312 295.316406 520.175781 295.304688 C 517 292.839844 506.761719 266.195312 500.742188 249.105469 Z M 579.589844 193.890625 " fill-opacity="1" fill-rule="nonzero"/><path fill="#113576" d="M 578.722656 192.332031 C 571.953125 218.015625 567.546875 245.066406 552.003906 267 C 546.019531 275.449219 537.820312 285.941406 527.429688 289.066406 C 522.328125 290.601562 515.800781 288.917969 512.761719 285.152344 C 509.722656 281.386719 498.621094 248.425781 498.621094 248.425781 Z M 578.722656 192.332031 " fill-opacity="1" fill-rule="nonzero"/><path fill="#c77951" d="M 415.183594 174.886719 C 417.289062 170.601562 418.769531 166.375 419.769531 162.183594 C 425.648438 137.566406 411.917969 129.324219 415.578125 103.441406 C 420.878906 65.964844 474.046875 63.894531 515.230469 67.957031 C 573.96875 73.746094 592.304688 91.660156 593.171875 137.628906 C 593.265625 142.589844 593.0625 147.597656 592.613281 152.613281 C 603.535156 147.269531 615.375 146.09375 619.300781 160.960938 C 626.453125 188.078125 609.886719 189.25 603.058594 200.214844 C 596.59375 210.601562 584.949219 215.054688 573.238281 214.742188 C 565.054688 229.316406 557.421875 230.375 544.878906 241.054688 C 506.695312 273.574219 443.601562 277.769531 418.800781 233.859375 C 408.4375 215.511719 406.449219 192.632812 415.183594 174.886719 Z M 415.183594 174.886719 " fill-opacity="1" fill-rule="nonzero"/><path fill="#113576" d="M 478.21875 267.902344 C 478.222656 267.902344 478.21875 267.902344 478.222656 267.902344 C 501.9375 267.902344 527.285156 258.371094 546.03125 242.410156 C 549.996094 239.03125 553.527344 236.582031 556.648438 234.425781 C 563.355469 229.785156 568.699219 226.085938 574.261719 216.53125 L 574.382812 216.53125 C 587.480469 216.53125 598.484375 210.925781 604.566406 201.15625 C 606.34375 198.296875 608.875 196.125 611.554688 193.828125 C 618.53125 187.84375 626.4375 181.066406 621.015625 160.511719 C 618.109375 149.5 611.128906 147.1875 605.78125 147.1875 C 602.460938 147.1875 598.71875 148.050781 594.617188 149.757812 C 594.910156 145.582031 595.019531 141.503906 594.945312 137.597656 C 594.046875 89.980469 573.976562 71.964844 515.402344 66.191406 C 505.394531 65.207031 495.914062 64.703125 487.21875 64.703125 C 442.125 64.703125 417.429688 77.65625 413.820312 103.195312 C 412.015625 115.96875 414.300781 124.488281 416.515625 132.726562 C 418.820312 141.300781 420.996094 149.398438 418.042969 161.769531 C 417.023438 166.058594 415.5625 170.089844 413.589844 174.105469 C 404.808594 191.949219 406.214844 215.183594 417.257812 234.734375 C 429.339844 256.121094 450.992188 267.902344 478.21875 267.902344 Z M 573.238281 212.96875 C 572.597656 212.96875 572.003906 213.3125 571.695312 213.871094 C 566.339844 223.40625 561.429688 226.804688 554.632812 231.507812 C 551.445312 233.714844 547.832031 236.210938 543.726562 239.707031 C 525.609375 255.140625 501.117188 264.355469 478.222656 264.355469 L 478.21875 264.355469 C 452.328125 264.355469 431.773438 253.214844 420.347656 232.984375 C 409.875 214.445312 408.503906 192.480469 416.773438 175.671875 C 418.867188 171.417969 420.410156 167.144531 421.496094 162.597656 C 424.660156 149.351562 422.261719 140.433594 419.941406 131.808594 C 417.820312 123.910156 415.628906 115.75 417.332031 103.691406 C 420.65625 80.179688 444.171875 68.253906 487.21875 68.253906 C 495.796875 68.253906 505.160156 68.75 515.054688 69.726562 C 571.984375 75.332031 590.535156 91.839844 591.398438 137.667969 C 591.488281 142.378906 591.300781 147.355469 590.847656 152.457031 C 590.792969 153.09375 591.082031 153.710938 591.609375 154.078125 C 592.140625 154.445312 592.816406 154.492188 593.394531 154.207031 C 598.101562 151.902344 602.269531 150.734375 605.78125 150.734375 C 611.828125 150.734375 615.6875 154.226562 617.585938 161.417969 C 622.4375 179.820312 616.027344 185.316406 609.242188 191.132812 C 606.480469 193.507812 603.621094 195.957031 601.554688 199.277344 C 596.128906 207.988281 586.226562 212.984375 574.378906 212.984375 L 573.285156 212.96875 C 573.269531 212.96875 573.253906 212.96875 573.238281 212.96875 Z M 573.238281 212.96875 " fill-opacity="1" fill-rule="nonzero"/><path fill="#113576" d="M 600.519531 183.15625 C 602.835938 179.71875 604.910156 175.292969 606.191406 171.375 C 608.5 164.300781 599.796875 164.472656 595.992188 166.527344 C 589.410156 170.082031 584.015625 177.703125 580.824219 184.3125 C 579.855469 183.050781 578.886719 181.785156 577.917969 180.519531 C 583.515625 179.484375 587.390625 183.472656 587.277344 189.019531 C 587.15625 194.804688 580.527344 198.328125 576.355469 193.839844 C 575.332031 192.738281 576.113281 191.179688 577.511719 191.042969 C 579.417969 190.855469 581.53125 191.324219 582.105469 189.125 C 582.59375 187.238281 581.316406 185.117188 579.28125 185.496094 C 576.988281 185.917969 575.359375 183.808594 576.375 181.699219 C 580.792969 172.554688 589.914062 160.492188 600.992188 160.035156 C 605.417969 159.851562 610.84375 163.574219 611.015625 168.265625 C 611.28125 175.453125 606.035156 179.300781 601.722656 184.089844 C 601.144531 184.738281 600.03125 183.878906 600.519531 183.15625 Z M 600.519531 183.15625 " fill-opacity="1" fill-rule="nonzero"/><path fill="#113576" d="M 496.273438 148.4375 C 508.070312 148.4375 506.167969 171.84375 497.160156 172.695312 C 486.902344 173.664062 483.066406 148.4375 496.273438 148.4375 Z M 496.273438 148.4375 " fill-opacity="1" fill-rule="nonzero"/><path fill="#113576" d="M 526.480469 171.574219 C 521.238281 182.511719 508.015625 193.667969 496.382812 182.96875 C 486.359375 173.75 485.933594 158.980469 488.558594 146.476562 C 490.625 136.644531 496.75 125.480469 507.984375 125.492188 C 521.972656 125.503906 527.933594 141.675781 528.460938 152.964844 C 528.5 153.789062 527.304688 153.898438 527.070312 153.152344 C 524.507812 144.996094 519.734375 136.441406 512.152344 131.996094 C 502.507812 126.335938 496.441406 138.3125 494.027344 145.511719 C 491.386719 153.378906 491.300781 162.109375 493.402344 170.078125 C 494.6875 174.957031 497.621094 178.539062 501.691406 181.417969 C 510.632812 187.742188 520.917969 177.324219 524.867188 170.625 C 525.488281 169.574219 526.996094 170.5 526.480469 171.574219 Z M 526.480469 171.574219 " fill-opacity="1" fill-rule="nonzero"/><path fill="#113576" d="M 433.382812 142.003906 C 443.394531 142.003906 441.777344 165.410156 434.136719 166.257812 C 425.429688 167.230469 422.175781 142.003906 433.382812 142.003906 Z M 433.382812 142.003906 " fill-opacity="1" fill-rule="nonzero"/><path fill="#113576" d="M 457.78125 168.898438 C 453.875 178.578125 442.355469 192.003906 431.796875 180.515625 C 423.066406 171.019531 422.929688 157.007812 424.839844 144.960938 C 426.285156 135.867188 431.109375 122.660156 442.230469 123.089844 C 455.242188 123.589844 459.210938 140.554688 459.351562 150.519531 C 459.363281 151.335938 458.191406 151.472656 457.964844 150.710938 C 455.714844 143.140625 451.195312 131.84375 443.214844 128.609375 C 435.414062 125.445312 431.523438 138.953125 430.191406 143.875 C 428.164062 151.386719 428.132812 159.535156 429.695312 167.117188 C 430.5 171.03125 432.253906 174.488281 434.890625 177.460938 C 443.476562 187.15625 453.09375 173.988281 456.074219 168.183594 C 456.550781 167.253906 458.179688 167.917969 457.78125 168.898438 Z M 457.78125 168.898438 " fill-opacity="1" fill-rule="nonzero"/><path fill="#c77951" d="M 460.847656 160.5625 C 458.503906 164.078125 457.332031 167.59375 453.820312 171.105469 C 447.960938 178.136719 437.417969 179.308594 432.730469 185.164062 C 428.042969 191.023438 431.355469 201.421875 445.449219 204.496094 C 445.449219 204.496094 457.855469 196.609375 463.769531 184.070312 C 469.6875 171.53125 460.847656 160.5625 460.847656 160.5625 Z M 460.847656 160.5625 " fill-opacity="1" fill-rule="nonzero"/><path fill="#113576" d="M 461.476562 160.929688 C 456.699219 169.074219 453.207031 174.722656 444.566406 179.175781 C 439.699219 181.6875 432.402344 184.050781 432.15625 190.585938 C 431.871094 198.09375 440.742188 200.914062 446.15625 203.296875 C 447.394531 203.839844 446.800781 206.03125 445.460938 205.890625 C 436.722656 204.980469 427.890625 198.378906 429.632812 188.792969 C 430.523438 183.902344 434.9375 181.117188 438.992188 178.96875 C 443.246094 176.714844 447.429688 175.070312 451.25 172.015625 C 455.144531 168.898438 457.582031 164.3125 460.21875 160.191406 C 460.726562 159.40625 461.953125 160.117188 461.476562 160.929688 Z M 461.476562 160.929688 " fill-opacity="1" fill-rule="nonzero"/><path fill="#113576" d="M 427.785156 114.003906 C 431.449219 105.5625 438.648438 102.019531 447.636719 102.140625 C 455.34375 102.242188 469.976562 106.914062 467.3125 117.117188 C 466.664062 119.585938 464.527344 120.820312 462.148438 121.050781 C 457.3125 121.515625 453.296875 116.765625 448.703125 115.527344 C 444.203125 114.308594 436.816406 114.976562 433.550781 118.457031 C 430.472656 121.738281 426.230469 117.578125 427.785156 114.003906 Z M 427.785156 114.003906 " fill-opacity="1" fill-rule="nonzero"/><path fill="#113576" d="M 609.5625 89.246094 C 609.5625 112.902344 607.195312 169.679688 574.078125 174.410156 C 552.785156 177.960938 559.882812 143.65625 561.066406 130.644531 C 562.25 114.085938 562.25 92.796875 546.871094 82.152344 " fill-opacity="1" fill-rule="nonzero"/><path fill="#4e63ab" d="M 403.671875 94.121094 C 410.828125 90.664062 429.5625 78.519531 440.128906 70.171875 C 446.84375 6.835938 486.210938 -0.851562 563.480469 5.175781 C 668.074219 13.335938 654.742188 101.777344 645.359375 113.824219 C 635.972656 125.867188 569.035156 139.003906 533.519531 137.617188 C 498.828125 136.265625 482.695312 109.855469 467.929688 105.339844 C 451.113281 100.203125 436.875 101.210938 425.335938 104.875 C 419.597656 106.695312 419.199219 130.742188 419.199219 130.742188 C 419.199219 130.742188 402.324219 137.191406 389.5625 130.773438 C 376.800781 124.359375 373.433594 108.730469 403.671875 94.121094 Z M 403.671875 94.121094 " fill-opacity="1" fill-rule="nonzero"/><path fill="#113576" d="M 538.945312 139.496094 C 576.023438 139.496094 637.257812 127.109375 646.757812 114.914062 C 652.761719 107.207031 658.148438 77.945312 646.609375 51.796875 C 637.871094 31.992188 616.378906 7.519531 563.617188 3.40625 C 549.082031 2.273438 536.980469 1.722656 526.621094 1.722656 C 476.824219 1.722656 444.675781 13.039062 438.445312 69.238281 C 427.800781 77.550781 409.609375 89.285156 402.902344 92.527344 C 382.789062 102.242188 378.511719 111.6875 378.460938 117.902344 C 378.414062 123.777344 382.167969 129.042969 388.765625 132.359375 C 392.769531 134.371094 397.515625 135.390625 402.871094 135.390625 C 411.898438 135.390625 419.511719 132.523438 419.835938 132.398438 C 420.511719 132.140625 420.960938 131.496094 420.976562 130.773438 C 421.15625 119.773438 423.167969 107.421875 425.871094 106.5625 C 438.828125 102.453125 452.914062 102.605469 467.410156 107.039062 C 472.171875 108.488281 477.304688 112.546875 483.246094 117.246094 C 495.214844 126.707031 510.113281 138.484375 533.453125 139.394531 C 535.210938 139.460938 537.042969 139.496094 538.945312 139.496094 Z M 526.621094 5.269531 C 536.886719 5.269531 548.898438 5.816406 563.34375 6.945312 C 614.355469 10.925781 635.015625 34.3125 643.363281 53.230469 C 654.5625 78.613281 648.859375 106.441406 643.960938 112.734375 C 636.015625 122.929688 577.132812 135.945312 538.945312 135.945312 C 537.09375 135.945312 535.304688 135.914062 533.589844 135.847656 C 511.40625 134.980469 497.011719 123.605469 485.445312 114.464844 C 479.222656 109.546875 473.84375 105.296875 468.449219 103.644531 C 453.257812 99.003906 438.433594 98.847656 424.796875 103.183594 C 418.746094 105.101562 417.648438 122.425781 417.453125 129.464844 C 415.101562 130.222656 409.304688 131.84375 402.871094 131.84375 C 398.070312 131.84375 393.863281 130.953125 390.359375 129.191406 C 385.019531 126.507812 381.972656 122.402344 382.011719 117.933594 C 382.070312 110.574219 390.035156 102.6875 404.449219 95.722656 C 411.5 92.316406 430.230469 80.253906 441.230469 71.566406 C 441.605469 71.269531 441.847656 70.835938 441.894531 70.363281 C 446.925781 22.910156 469.890625 5.269531 526.621094 5.269531 Z M 526.621094 5.269531 " fill-opacity="1" fill-rule="nonzero"/><path fill="#113576" d="M 518.21875 118.382812 C 518.558594 118.382812 518.910156 118.28125 519.214844 118.074219 C 520.027344 117.523438 520.234375 116.417969 519.6875 115.609375 C 504.453125 93.183594 475.242188 79.550781 455.804688 79.328125 C 438.777344 79.109375 423.519531 84.839844 411.382812 89.425781 C 408.394531 90.554688 405.628906 91.601562 403.113281 92.441406 C 402.179688 92.75 401.683594 93.757812 401.992188 94.683594 C 402.300781 95.621094 403.304688 96.125 404.234375 95.808594 C 406.792969 94.949219 409.605469 93.890625 412.640625 92.742188 C 424.304688 88.335938 438.773438 82.871094 454.957031 82.871094 C 455.230469 82.871094 455.496094 82.871094 455.765625 82.875 C 474.296875 83.089844 502.171875 96.136719 516.75 117.601562 C 517.089844 118.105469 517.652344 118.382812 518.21875 118.382812 Z M 518.21875 118.382812 " fill-opacity="1" fill-rule="nonzero"/><path fill="#113576" d="M 460.484375 227.582031 C 464.828125 227.582031 469.355469 226.898438 473.96875 225.5 C 485.863281 221.898438 495.535156 214.070312 496.976562 206.875 C 497.167969 205.914062 496.546875 204.980469 495.582031 204.789062 C 494.675781 204.597656 493.6875 205.214844 493.496094 206.183594 C 492.316406 212.066406 483.480469 218.914062 472.9375 222.105469 C 466.5 224.058594 450.183594 227.273438 437.9375 215.035156 C 437.246094 214.339844 436.125 214.339844 435.429688 215.035156 C 434.734375 215.726562 434.734375 216.851562 435.429688 217.542969 C 442.042969 224.15625 450.792969 227.582031 460.484375 227.582031 Z M 460.484375 227.582031 " fill-opacity="1" fill-rule="nonzero"/></g></g></svg>