<svg xmlns="http://www.w3.org/2000/svg" xmlns:xlink="http://www.w3.org/1999/xlink" width="1080" zoomAndPan="magnify" viewBox="0 0 810 1012.49997" height="1350" preserveAspectRatio="xMidYMid meet" version="1.0"><defs><clipPath id="b82d26e304"><path d="M 490 164 L 706.546875 164 L 706.546875 466 L 490 466 Z M 490 164 " clip-rule="nonzero"/></clipPath><clipPath id="9b84ec6d3f"><path d="M 117 834 L 603 834 L 603 1011.503906 L 117 1011.503906 Z M 117 834 " clip-rule="nonzero"/></clipPath></defs><path fill="#113576" d="M 683.257812 774.46875 C 683.949219 778.144531 690.652344 794.65625 684.484375 796.339844 C 682.761719 796.839844 680.960938 797.222656 679.199219 797.527344 C 679.3125 801.816406 679.464844 806.109375 679.621094 810.359375 C 680.195312 824.417969 680.804688 838.476562 681.382812 852.535156 C 681.457031 854.488281 683.296875 864.066406 681.417969 865.710938 C 679.65625 867.28125 665.214844 865.445312 662.457031 865.828125 C 645.988281 868.011719 629.976562 874.40625 614.347656 879.847656 C 601.9375 884.175781 566.734375 901.144531 553.824219 892.140625 C 547.351562 887.621094 563.554688 877.28125 566.121094 875.328125 C 586.804688 859.507812 605.996094 841.503906 621.089844 820.128906 C 625.53125 813.882812 628.980469 807.335938 631.507812 800.363281 C 628.058594 800.898438 624.496094 801.589844 621.28125 802.851562 C 619.863281 803.425781 618.558594 806.492188 617.488281 805.417969 C 616.070312 804 615.878906 796.035156 615.496094 794.117188 C 613.199219 782.628906 610.746094 771.136719 608.945312 759.566406 C 601.09375 709.386719 599.636719 658.132812 597.796875 607.496094 C 596.957031 584.777344 595.84375 562.101562 594.847656 539.425781 C 594.503906 531.765625 594.199219 524.101562 593.660156 516.441406 C 593.660156 516.289062 593.203125 509.546875 592.742188 509.699219 C 591.363281 510.121094 590.902344 521.191406 590.75 522.339844 C 588.796875 538.351562 587.035156 554.328125 585.847656 570.414062 C 582.171875 620.058594 580.675781 670.046875 579.566406 719.804688 C 579.296875 732.523438 579.257812 745.242188 578.835938 757.957031 C 578.683594 763.089844 579.257812 771.210938 575.273438 775.273438 C 567.882812 782.742188 544.4375 774.851562 535.550781 773.28125 C 534.710938 773.164062 524.519531 772.515625 524.097656 771.671875 C 520.113281 763.742188 520.613281 750.144531 519.695312 741.640625 C 516.9375 716.167969 516.09375 690.578125 515.941406 664.992188 C 515.75 632.929688 516.09375 600.828125 516.589844 568.765625 C 517.128906 532.914062 517.96875 497.019531 519.347656 461.167969 C 519.769531 450.824219 523.832031 434.046875 523.140625 421.828125 L 521.609375 421.710938 C 521.609375 421.710938 516.207031 304.917969 512.644531 293.503906 C 509.082031 282.089844 468.632812 286.761719 460.855469 281.09375 C 455.035156 276.839844 466.179688 259.566406 466.179688 259.566406 C 510.691406 158.402344 554.476562 181.308594 585.3125 167.554688 C 605.726562 158.476562 611.78125 164.566406 651.15625 177.054688 C 680.613281 186.441406 700.074219 223.828125 701.109375 231.984375 C 702.871094 246.082031 681.457031 349.046875 670.195312 401.792969 C 688.007812 497.789062 671.652344 597.304688 675.480469 694.257812 C 676.515625 721.070312 678.316406 748.074219 683.257812 774.46875 " fill-opacity="1" fill-rule="evenodd"/><path fill="#c77951" d="M 647.824219 97.113281 C 644.644531 107.070312 637.175781 114.15625 628.75 119.902344 C 629.324219 142.773438 636.027344 187.4375 636.027344 187.4375 C 636.027344 187.4375 594.925781 206.4375 581.824219 183.335938 C 580.332031 180.65625 588.910156 157.710938 588.03125 150.125 C 587.839844 150.164062 587.609375 150.203125 587.417969 150.242188 C 561.675781 154.914062 547.964844 120.441406 547.964844 111.476562 C 548 109.332031 551.488281 92.476562 548.039062 88.53125 C 547.582031 87.996094 546.394531 79.757812 546.429688 79.875 L 608.292969 62.367188 C 628.519531 63.480469 632.160156 74.894531 631.738281 90.410156 C 638.632812 79.453125 653.609375 79.070312 647.824219 97.113281 " fill-opacity="1" fill-rule="evenodd"/><path fill="#4e63ab" d="M 353.027344 509.929688 L 356.28125 404.820312 C 378.460938 404.09375 553.863281 463.160156 602.546875 474.304688 C 604.234375 474.6875 599.789062 774.199219 595.308594 809.59375 C 591.59375 839.128906 582.246094 788.757812 581.480469 787.605469 C 577.726562 781.59375 582.898438 512 581.632812 492.921875 C 573.246094 490.355469 374.476562 422.058594 374.476562 422.058594 L 373.214844 508.054688 L 353.027344 509.929688 " fill-opacity="1" fill-rule="evenodd"/><g clip-path="url(#b82d26e304)"><path fill="#fed69f" d="M 534.632812 178.78125 C 534.671875 178.78125 534.746094 178.78125 534.824219 178.816406 L 534.632812 178.972656 C 534.519531 178.816406 534.519531 178.78125 534.632812 178.78125 Z M 621.894531 311.777344 C 621.738281 313.539062 671.152344 332.078125 682.988281 317.292969 C 694.789062 302.507812 700.535156 248.953125 692.757812 223.097656 C 683.949219 193.71875 654.949219 201.074219 637.828125 247.382812 C 631.46875 264.621094 622.964844 299.976562 621.894531 311.777344 Z M 534.824219 178.816406 L 539.804688 175.027344 C 551.105469 171.730469 562.902344 169.816406 574.355469 167.019531 C 576.269531 166.558594 583.433594 163.535156 585.425781 165.027344 C 586.152344 165.5625 584.929688 169.242188 584.8125 169.929688 C 583.855469 175.484375 541.988281 439.332031 541.988281 439.332031 C 541.988281 439.332031 492.230469 430.101562 490.582031 429.796875 C 488.820312 429.449219 507.054688 306.71875 512.339844 289.710938 C 516.9375 275.042969 539.113281 216.203125 540.035156 200.84375 C 540.339844 195.632812 540.761719 189.851562 539.191406 184.792969 C 538.65625 183.109375 538.003906 181.308594 536.816406 180.003906 C 536.472656 179.582031 535.359375 178.972656 534.824219 178.816406 Z M 568.609375 445.078125 C 565.007812 449.675781 619.671875 241.332031 625.300781 228.769531 C 630.816406 216.546875 633.421875 167.019531 633.421875 167.019531 C 638.59375 166.40625 680.691406 184.410156 694.671875 204.480469 C 716.046875 235.089844 704.402344 305.992188 691.570312 350.121094 C 680.730469 387.390625 689.886719 465.265625 689.886719 465.265625 C 689.886719 465.265625 568.761719 444.886719 568.609375 445.078125 " fill-opacity="1" fill-rule="evenodd"/></g><path fill="#4e63ab" d="M 682.300781 319.476562 C 681.917969 319.320312 681.496094 319.167969 681.074219 319.015625 C 666.75 330.390625 621.738281 313.460938 621.894531 311.777344 C 622.085938 309.746094 622.542969 306.835938 623.117188 303.578125 C 616.988281 302.621094 610.859375 301.738281 604.769531 300.933594 C 599.175781 321.621094 593.242188 344.257812 587.761719 365.367188 C 598.335938 365.785156 608.90625 366.285156 619.441406 367.089844 C 632.542969 368.085938 646.675781 369.730469 659.085938 374.0625 C 667.898438 377.164062 676.324219 381.414062 684.367188 386.050781 C 684.5625 386.164062 685.519531 386.777344 686.589844 387.507812 C 687.164062 373.640625 688.582031 360.347656 691.570312 350.121094 C 693.753906 342.648438 695.859375 334.375 697.8125 325.679688 C 692.871094 323.535156 687.816406 321.925781 682.300781 319.476562 Z M 529.84375 291.933594 C 541.527344 292.585938 553.171875 294.078125 564.78125 295.6875 C 561.0625 319.054688 557.308594 342.726562 553.9375 363.988281 C 544.4375 363.527344 534.902344 363.027344 525.402344 362.222656 C 517.96875 361.574219 510.578125 360.691406 503.144531 359.847656 C 502.914062 359.847656 501.308594 359.8125 499.773438 359.734375 C 504.179688 331.195312 509.042969 302.46875 511.726562 291.933594 C 512.914062 291.664062 516.550781 291.511719 516.820312 291.511719 C 521.148438 291.511719 525.515625 291.703125 529.84375 291.933594 " fill-opacity="1" fill-rule="evenodd"/><path fill="#c77951" d="M 640.664062 304.34375 C 632.160156 305.1875 625.683594 308.480469 625.683594 308.480469 C 625.683594 308.480469 613.695312 353.949219 593.203125 378.351562 C 572.09375 403.480469 562.519531 431.441406 559.261719 433.742188 C 550.988281 439.679688 523.140625 436.957031 525.554688 448.832031 C 527.203125 456.953125 533.523438 450.289062 535.898438 461.972656 C 537.734375 471.050781 520.039062 469.785156 520.308594 478.558594 C 520.652344 489.820312 556.695312 496.179688 564.894531 493.421875 C 579.640625 488.515625 582.015625 462.546875 587.265625 450.480469 C 589.449219 445.425781 612.777344 420.871094 630.089844 388.65625 C 635.109375 379.269531 659.855469 346.480469 669.851562 320.050781 C 675.445312 305.1875 655.523438 302.851562 640.664062 304.34375 Z M 508.929688 285.382812 C 497.667969 304.421875 489.277344 316.945312 473.6875 333.035156 C 460.894531 346.210938 458.828125 368.316406 433.007812 394.9375 C 426.152344 401.945312 444.730469 419.644531 444.195312 421.675781 C 441.820312 430.945312 440.898438 423.78125 433.125 428.800781 C 427.070312 432.707031 430.480469 441.210938 425.039062 445.652344 C 416.613281 452.511719 401.136719 449.597656 396.160156 442.359375 C 387.730469 430.101562 383.25 425.851562 391.027344 414.511719 C 398.839844 403.097656 402.402344 395.28125 411.210938 385.054688 C 416.652344 378.734375 470.011719 274.238281 470.011719 274.238281 C 487.019531 271.515625 499.8125 275.578125 508.929688 285.382812 " fill-opacity="1" fill-rule="evenodd"/><g clip-path="url(#9b84ec6d3f)"><path fill="#4e63ab" d="M 122.503906 863.183594 C 122.3125 861.152344 121.277344 867.050781 120.742188 869.007812 C 119.476562 873.601562 118.480469 878.277344 117.90625 883.027344 C 115.953125 898.65625 116.414062 918 132.730469 925.8125 C 163.261719 940.484375 186.972656 906.851562 184.980469 879.386719 Z M 593.585938 834.109375 L 544.285156 855.714844 C 546.738281 854.183594 543.328125 861.460938 543.175781 864.371094 C 542.832031 870.078125 542.792969 875.824219 542.984375 881.570312 C 543.558594 897.238281 549.570312 921.484375 570.140625 920.640625 C 600.75 919.339844 611.625 853.378906 593.585938 834.109375 Z M 391.90625 934.507812 C 396.234375 944.8125 396.769531 955.347656 395.277344 966.378906 C 394.089844 974.957031 392.214844 983.652344 388.152344 991.355469 C 370.53125 1024.757812 334.753906 1013.496094 327.207031 980.476562 C 326.441406 977.066406 321.234375 953.621094 326.75 951.824219 L 391.90625 934.507812 " fill-opacity="1" fill-rule="evenodd"/></g><path fill="#fed69f" d="M 140.277344 918.421875 C 138.4375 914.550781 137.480469 910.070312 137.136719 905.511719 C 136.984375 903.710938 136.945312 901.871094 136.945312 900.109375 C 136.984375 897.3125 137.136719 894.554688 137.480469 891.988281 C 137.671875 890.152344 137.941406 888.3125 138.285156 886.511719 C 138.628906 884.671875 139.015625 882.835938 139.472656 881.035156 C 139.589844 880.496094 140.125 879.921875 140.546875 879.347656 C 140.96875 878.8125 141.3125 878.277344 141.464844 877.777344 C 141.582031 877.242188 141.542969 876.742188 141.121094 876.285156 C 140.890625 876.015625 140.46875 876.015625 140.238281 876.246094 C 139.972656 876.4375 139.933594 876.859375 140.164062 877.125 C 140.316406 877.316406 140.164062 877.507812 140.046875 877.738281 C 139.742188 878.199219 139.242188 878.695312 138.824219 879.234375 C 138.4375 879.691406 138.132812 880.191406 137.980469 880.652344 C 137.441406 882.449219 136.984375 884.289062 136.523438 886.128906 C 136.101562 887.96875 135.757812 889.84375 135.453125 891.722656 C 135.070312 894.363281 134.761719 897.199219 134.683594 900.070312 C 134.648438 901.949219 134.722656 903.824219 134.875 905.664062 C 135.296875 910.527344 136.410156 915.242188 138.515625 919.300781 C 141.351562 924.855469 145.945312 929.105469 152.996094 930.714844 C 153.378906 930.832031 153.761719 930.601562 153.839844 930.21875 C 153.953125 929.835938 153.722656 929.453125 153.339844 929.375 C 146.867188 927.691406 142.769531 923.589844 140.277344 918.421875 Z M 581.863281 916.273438 C 573.933594 914.972656 569.070312 908.957031 566.121094 901.222656 C 564.128906 896.011719 562.980469 889.996094 562.40625 884.097656 C 562.097656 881.109375 561.867188 878.160156 561.792969 875.289062 C 561.714844 872.148438 561.714844 869.160156 561.828125 866.476562 C 561.945312 864.5625 562.058594 862.683594 562.289062 860.808594 C 562.480469 858.929688 562.75 857.054688 563.09375 855.175781 C 563.285156 854.335938 564.011719 853.570312 564.359375 852.765625 C 564.585938 852.226562 564.664062 851.691406 564.472656 851.117188 C 564.394531 850.773438 564.011719 850.582031 563.707031 850.695312 C 563.363281 850.773438 563.171875 851.15625 563.285156 851.460938 C 563.324219 851.730469 563.246094 852 563.132812 852.226562 C 562.75 853.109375 561.945312 853.953125 561.714844 854.871094 C 561.253906 856.785156 560.871094 858.664062 560.605469 860.578125 C 560.296875 862.492188 560.105469 864.449219 559.953125 866.363281 C 559.761719 869.082031 559.609375 872.109375 559.644531 875.328125 C 559.683594 878.238281 559.800781 881.300781 560.105469 884.328125 C 560.757812 890.417969 562.058594 896.625 564.203125 901.949219 C 567.574219 910.222656 573.089844 916.503906 581.671875 917.617188 C 582.054688 917.691406 582.398438 917.425781 582.476562 917.039062 C 582.515625 916.65625 582.246094 916.3125 581.863281 916.273438 Z M 379.417969 1002.308594 C 379.726562 1002.117188 380.183594 1002.230469 380.339844 1002.578125 C 380.566406 1002.921875 380.414062 1003.34375 380.109375 1003.535156 C 373.058594 1007.710938 367.085938 1006.828125 362.410156 1002.960938 C 358.582031 999.894531 355.59375 994.878906 353.5625 988.980469 C 352.375 985.609375 351.53125 981.96875 350.957031 978.292969 C 350.5 974.921875 350.191406 971.550781 350.039062 968.140625 C 349.886719 964.769531 349.886719 961.359375 350.039062 957.988281 C 350.078125 956.878906 350.152344 955.769531 350.230469 954.65625 C 350.308594 953.546875 350.421875 952.472656 350.535156 951.363281 C 350.613281 950.902344 350.84375 950.214844 351.074219 949.5625 C 351.148438 949.410156 351.226562 949.21875 351.304688 949.0625 L 351.265625 948.988281 C 351.035156 948.71875 351.109375 948.335938 351.417969 948.105469 C 351.761719 947.839844 352.03125 947.914062 352.183594 947.992188 C 352.414062 948.070312 352.605469 948.261719 352.644531 948.644531 C 352.644531 949.101562 352.03125 950.710938 351.953125 951.476562 C 351.878906 952.589844 351.839844 953.660156 351.761719 954.773438 C 351.722656 955.84375 351.722656 956.917969 351.722656 958.027344 C 351.6875 961.359375 351.839844 964.691406 352.070312 968.027344 C 352.296875 971.359375 352.683594 974.691406 353.179688 977.945312 C 353.714844 981.507812 354.558594 985.03125 355.632812 988.25 C 357.507812 993.765625 360.152344 998.554688 363.597656 1001.542969 C 367.734375 1005.027344 373.023438 1005.871094 379.417969 1002.308594 " fill-opacity="1" fill-rule="evenodd"/><path fill="#113576" d="M 179.503906 780.214844 L 544.324219 755.351562 L 605.882812 789.292969 L 609.445312 829.972656 L 341.34375 961.550781 L 106.261719 862.226562 L 102.96875 808.90625 L 179.503906 780.214844 " fill-opacity="1" fill-rule="evenodd"/><path fill="#fea97f" d="M 221.21875 588.1875 L 215.664062 586.042969 L 216.046875 511.269531 L 360.304688 480.625 L 537.46875 533.910156 L 535.78125 600.945312 L 557.960938 605.808594 L 552.0625 810.703125 L 357.625 894.863281 L 169.351562 800.285156 L 180.460938 592.898438 L 221.21875 588.1875 " fill-opacity="1" fill-rule="evenodd"/><path fill="#fea97f" d="M 627.0625 70.71875 C 628.710938 68.765625 630.433594 67.042969 632.734375 65.816406 C 633.921875 65.203125 635.222656 64.707031 636.5625 64.4375 C 648.707031 61.949219 648.589844 78.535156 648.589844 86.195312 C 648.589844 88.035156 648.667969 89.910156 648.554688 91.75 C 648.515625 91.980469 648.054688 90.753906 647.980469 90.5625 C 647.558594 89.605469 647.019531 88.683594 646.332031 87.878906 C 644.609375 85.851562 641.621094 85.160156 639.09375 85.695312 C 635.949219 86.425781 633.5 88.953125 631.585938 91.367188 L 632.695312 90.0625 C 632.503906 90.410156 632.3125 90.753906 632.121094 91.097656 C 631.738281 91.75 631.355469 92.402344 630.972656 93.011719 C 630.664062 93.550781 630.320312 94.085938 629.976562 94.582031 C 629.859375 94.8125 629.707031 95.003906 629.59375 95.195312 L 629.363281 95.542969 L 629.363281 95.578125 C 629.285156 95.65625 629.246094 95.695312 629.246094 95.65625 L 636.066406 84.125 C 633.421875 88.378906 631.390625 92.976562 628.328125 96.921875 C 626.910156 98.722656 625.417969 100.445312 624 102.207031 C 623.882812 102.320312 622.8125 104.007812 622.621094 103.929688 C 622.238281 103.816406 622.277344 101.9375 622.238281 101.632812 C 622.046875 99.179688 621.703125 96.921875 620.742188 94.621094 C 618.023438 88.035156 613.199219 82.132812 608.753906 76.65625 C 607.605469 75.238281 606.417969 73.859375 605.191406 72.480469 C 605.078125 72.328125 604.234375 71.332031 604.195312 71.292969 L 609.636719 67.042969 C 616.683594 66.351562 624.613281 66.429688 631.585938 67.617188 L 627.0625 70.71875 " fill-opacity="1" fill-rule="evenodd"/><path fill="#113576" d="M 638.515625 95.886719 C 637.484375 96.574219 636.488281 97.304688 635.566406 98.109375 C 634.917969 98.644531 634.34375 99.179688 633.765625 99.753906 C 633.308594 100.253906 632.808594 100.75 632.351562 101.25 C 631.890625 101.785156 631.429688 102.359375 631.046875 102.933594 C 630.894531 103.164062 630.742188 103.472656 630.664062 103.855469 C 630.589844 104.160156 630.550781 104.429688 630.511719 104.660156 L 630.472656 104.695312 C 630.167969 104.851562 630.089844 105.234375 630.242188 105.539062 C 630.359375 105.847656 630.589844 105.921875 630.742188 105.960938 C 630.933594 106.039062 631.125 105.960938 631.355469 105.847656 C 631.46875 105.769531 631.621094 105.539062 631.777344 105.195312 C 631.96875 104.8125 632.121094 104.199219 632.351562 103.96875 C 632.695312 103.585938 633.078125 103.242188 633.460938 102.894531 C 634.035156 102.359375 634.609375 101.863281 635.222656 101.402344 C 635.183594 101.515625 635.144531 101.632812 635.109375 101.785156 C 634.992188 102.167969 634.917969 102.550781 634.839844 102.972656 C 634.800781 103.472656 634.761719 103.96875 634.726562 104.429688 C 634.648438 105.195312 634.609375 105.921875 634.570312 106.648438 C 634.535156 107.03125 634.761719 107.417969 635.144531 107.492188 C 635.53125 107.53125 635.875 107.300781 635.949219 106.917969 C 636.179688 106.191406 636.410156 105.5 636.640625 104.8125 C 636.792969 104.351562 636.945312 103.890625 637.0625 103.394531 C 637.136719 103.011719 637.214844 102.628906 637.292969 102.207031 C 637.367188 101.824219 637.367188 101.402344 637.40625 100.980469 C 637.40625 100.867188 637.519531 99.984375 637.484375 99.449219 C 638.515625 98.566406 639.550781 97.648438 640.664062 96.804688 C 641.925781 95.847656 643.230469 94.96875 644.570312 94.355469 C 644.914062 94.199219 645.105469 93.816406 644.953125 93.433594 C 644.835938 93.089844 644.417969 92.9375 644.070312 93.050781 C 642.15625 93.703125 640.28125 94.699219 638.515625 95.886719 Z M 606.457031 135.300781 C 604.273438 137.675781 601.972656 139.785156 599.523438 141.738281 C 598.296875 142.695312 597.070312 143.613281 595.769531 144.535156 C 594.503906 145.414062 593.242188 146.296875 591.859375 147.101562 C 591.09375 147.558594 589.640625 148.785156 588.300781 149.550781 C 587.800781 149.898438 587.304688 150.164062 586.917969 150.164062 C 586.574219 150.164062 586.269531 150.433594 586.269531 150.777344 C 586.269531 151.121094 586.535156 151.429688 586.882812 151.429688 C 587.417969 151.46875 588.183594 151.277344 588.988281 150.894531 C 590.40625 150.28125 592.015625 149.207031 592.820312 148.824219 C 594.273438 148.097656 595.730469 147.292969 597.070312 146.371094 C 598.410156 145.453125 599.675781 144.457031 600.902344 143.347656 C 603.316406 141.238281 605.460938 138.828125 607.488281 136.222656 C 607.757812 135.914062 607.71875 135.496094 607.414062 135.226562 C 607.144531 134.996094 606.683594 135.035156 606.457031 135.300781 Z M 568.378906 121.78125 C 568.339844 121.703125 568.304688 121.628906 568.226562 121.703125 C 568.304688 121.742188 568.304688 121.742188 568.339844 121.78125 Z M 589.601562 119.136719 C 589.410156 118.792969 588.988281 118.640625 588.644531 118.832031 C 585.65625 120.132812 583.164062 121.855469 580.332031 122.816406 C 579.449219 123.082031 578.53125 123.3125 577.574219 123.429688 C 576.691406 123.503906 575.734375 123.542969 574.738281 123.429688 C 574.546875 123.390625 573.550781 123.121094 572.441406 122.851562 C 571.136719 122.507812 569.644531 122.125 568.800781 121.855469 C 568.648438 121.820312 568.496094 121.820312 568.378906 121.78125 L 568.417969 121.855469 L 568.339844 121.78125 C 568.265625 121.78125 568.226562 121.742188 568.226562 121.703125 C 567.921875 121.511719 567.539062 121.628906 567.347656 121.933594 C 567.308594 122.011719 567.117188 122.507812 567.652344 122.851562 C 567.765625 122.890625 567.996094 123.007812 568.304688 123.160156 C 569.109375 123.503906 570.5625 124.15625 571.867188 124.652344 C 573.089844 125.113281 574.203125 125.496094 574.433594 125.535156 C 575.621094 125.726562 576.769531 125.804688 577.804688 125.6875 C 578.953125 125.574219 580.0625 125.265625 581.097656 124.84375 C 582.589844 124.269531 583.96875 123.429688 585.347656 122.546875 C 586.613281 121.703125 587.878906 120.824219 589.292969 120.09375 C 589.640625 119.902344 589.753906 119.484375 589.601562 119.136719 Z M 561.984375 96.039062 C 561.332031 96.039062 560.71875 95.925781 560.144531 95.695312 C 559.761719 95.542969 559.417969 95.351562 559.070312 95.082031 C 558.6875 94.8125 558.34375 94.507812 558 94.125 C 557.617188 93.742188 557.269531 93.394531 556.964844 92.976562 C 556.773438 92.707031 556.46875 91.902344 556.3125 91.75 C 556.082031 91.480469 555.816406 91.40625 555.664062 91.441406 C 555.546875 91.480469 555.394531 91.480469 555.28125 91.632812 C 555.203125 91.710938 555.089844 91.824219 555.089844 92.09375 C 555.050781 92.285156 555.125 92.476562 555.242188 92.59375 C 555.316406 92.976562 555.433594 93.550781 555.546875 93.816406 C 555.816406 94.355469 556.082031 94.890625 556.429688 95.386719 C 556.773438 95.925781 557.234375 96.382812 557.65625 96.804688 C 558.074219 97.1875 558.535156 97.457031 558.996094 97.648438 C 559.683594 97.953125 560.449219 98.109375 561.21875 98.109375 C 562.941406 98.109375 564.703125 97.457031 566.121094 96.5 C 566.464844 96.308594 566.578125 95.886719 566.386719 95.542969 C 566.195312 95.195312 565.773438 95.082031 565.429688 95.273438 C 564.394531 95.769531 563.171875 96.039062 561.984375 96.039062 Z M 584.738281 94.085938 C 584.699219 93.972656 584.660156 93.894531 584.582031 93.933594 C 584.507812 93.933594 584.621094 93.972656 584.621094 94.007812 C 584.660156 94.046875 584.699219 94.046875 584.738281 94.085938 Z M 585.769531 93.664062 C 585.769531 93.742188 585.769531 93.855469 585.730469 93.933594 C 585.847656 93.855469 585.886719 93.78125 585.925781 93.703125 C 586.117188 94.164062 586.421875 94.890625 586.652344 95.195312 C 587.035156 95.617188 587.496094 96 587.992188 96.269531 C 588.414062 96.539062 588.910156 96.652344 589.410156 96.652344 C 589.871094 96.652344 590.328125 96.613281 590.75 96.5 C 591.441406 96.308594 592.054688 96 592.628906 95.578125 C 594.273438 94.429688 595.613281 92.667969 596.765625 91.175781 C 596.996094 90.867188 597.414062 90.792969 597.761719 91.023438 C 598.066406 91.25 598.144531 91.671875 597.914062 91.980469 C 596.839844 93.742188 595.613281 95.847656 593.929688 97.265625 C 593.164062 97.878906 592.320312 98.414062 591.363281 98.683594 C 590.710938 98.875 590.0625 98.914062 589.332031 98.875 C 588.453125 98.835938 587.609375 98.492188 586.882812 97.953125 C 586.230469 97.496094 585.695312 96.882812 585.273438 96.191406 C 585.121094 95.964844 584.964844 95.578125 584.851562 95.195312 C 584.773438 94.890625 584.773438 94.46875 584.738281 94.199219 C 584.621094 94.125 584.546875 93.972656 584.507812 93.816406 C 584.390625 93.203125 584.851562 93.011719 584.929688 92.976562 C 584.964844 92.976562 585.539062 92.859375 585.808594 93.472656 C 585.808594 93.511719 585.847656 93.550781 585.886719 93.625 C 585.847656 93.625 585.808594 93.625 585.769531 93.625 C 585.769531 93.625 585.769531 93.625 585.769531 93.664062 Z M 570.066406 99.945312 C 569.414062 101.097656 568.726562 102.246094 568.1875 103.433594 C 567.691406 104.503906 567.308594 105.652344 567.039062 106.804688 C 566.734375 108.414062 567.5 109.828125 568.839844 110.789062 C 570.449219 111.9375 572.863281 112.511719 574.355469 112.394531 C 574.777344 112.359375 575.046875 112.011719 575.046875 111.628906 C 575.007812 111.246094 574.699219 110.980469 574.316406 110.980469 C 573.28125 110.980469 571.789062 110.519531 570.601562 109.753906 C 569.644531 109.140625 568.839844 108.335938 569.109375 107.261719 C 569.453125 105.921875 570.105469 104.695312 570.714844 103.433594 C 571.40625 102.089844 572.09375 100.75 572.632812 99.371094 C 572.9375 98.605469 573.207031 97.878906 573.359375 97.113281 C 573.4375 96.804688 573.703125 94.8125 573.398438 93.933594 C 573.246094 93.472656 572.976562 93.203125 572.632812 93.128906 C 572.480469 93.089844 572.289062 93.050781 572.058594 93.128906 C 571.75 93.242188 571.519531 93.589844 571.636719 93.933594 C 571.710938 94.125 571.867188 94.277344 572.09375 94.355469 C 572.171875 95.042969 571.789062 96.382812 571.710938 96.613281 C 571.292969 97.761719 570.679688 98.875 570.066406 99.945312 Z M 648.707031 77.652344 C 648.707031 77.652344 614.578125 73.707031 610.132812 73.746094 C 605.652344 73.785156 600.75 87.878906 584.046875 87.496094 C 567.308594 87.113281 518.390625 81.292969 518.390625 81.292969 L 541.757812 55.246094 C 549.074219 9.277344 589.027344 -0.453125 625.378906 11.84375 C 665.980469 25.597656 648.707031 77.652344 648.707031 77.652344 " fill-opacity="1" fill-rule="nonzero"/><path fill="#fea97f" d="M 492.382812 275.003906 C 490.390625 274.273438 488.4375 273.660156 486.519531 273.203125 C 484.453125 272.703125 482.460938 272.320312 480.546875 272.089844 C 475.296875 271.441406 470.855469 271.707031 468.289062 272.320312 C 466.753906 272.703125 465.183594 273.203125 463.730469 273.890625 C 462.734375 274.390625 461.8125 274.964844 460.972656 275.691406 C 460.625 276 460.320312 276.304688 460.050781 276.6875 C 459.824219 277.070312 459.628906 277.53125 459.554688 277.992188 C 459.476562 278.335938 459.707031 278.679688 460.050781 278.71875 C 460.398438 278.796875 460.742188 278.566406 460.78125 278.21875 C 460.855469 277.953125 461.007812 277.683594 461.164062 277.453125 C 461.355469 277.1875 461.585938 276.957031 461.851562 276.765625 C 462.808594 276.035156 463.921875 275.5 465.070312 275.078125 C 466.21875 274.621094 467.484375 274.3125 468.671875 274.082031 C 471.121094 273.585938 475.296875 273.585938 480.238281 274.3125 C 482.078125 274.582031 483.992188 274.925781 485.984375 275.425781 C 487.824219 275.84375 489.738281 276.382812 491.617188 277.03125 C 498.585938 279.445312 505.636719 283.429688 510.960938 289.828125 C 511.191406 290.132812 511.609375 290.171875 511.917969 289.902344 C 512.222656 289.671875 512.261719 289.253906 512.03125 288.945312 C 506.746094 282.089844 499.546875 277.644531 492.382812 275.003906 Z M 681.265625 317.523438 C 681.265625 317.523438 681.265625 317.558594 681.265625 317.636719 C 681.265625 317.558594 681.265625 317.484375 681.304688 317.445312 C 681.304688 317.484375 681.265625 317.484375 681.265625 317.523438 Z M 679.273438 313.691406 C 677.320312 312.234375 675.214844 310.894531 673.03125 309.746094 C 670.847656 308.558594 668.550781 307.5625 666.25 306.796875 C 661.386719 305.148438 656.980469 304.039062 652.957031 303.425781 C 650.507812 303.082031 648.207031 302.890625 646.101562 302.8125 C 643.574219 302.773438 641.273438 302.890625 639.167969 303.117188 C 628.902344 304.382812 623.425781 308.558594 622.160156 309.898438 C 621.929688 310.167969 621.929688 310.550781 622.160156 310.78125 C 622.429688 311.046875 622.8125 311.046875 623.082031 310.78125 C 624.304688 309.59375 629.667969 306.03125 639.398438 305.1875 C 641.390625 305.035156 643.613281 304.957031 646.023438 305.074219 C 648.054688 305.148438 650.277344 305.339844 652.613281 305.683594 C 656.558594 306.261719 660.886719 307.179688 665.597656 308.710938 C 667.859375 309.402344 670.082031 310.28125 672.1875 311.355469 C 674.371094 312.390625 676.441406 313.613281 678.355469 314.957031 C 678.46875 315.070312 680.921875 316.601562 681.304688 317.332031 C 681.304688 317.367188 681.304688 317.40625 681.304688 317.445312 C 681.304688 317.40625 681.304688 317.40625 681.34375 317.367188 C 681.417969 317.523438 681.382812 317.636719 681.265625 317.714844 C 681.226562 317.75 681.226562 317.675781 681.265625 317.636719 C 681.191406 317.789062 681.074219 317.90625 681.152344 318.097656 C 681.304688 318.441406 681.6875 318.632812 682.070312 318.519531 C 682.261719 318.402344 682.414062 318.289062 682.53125 318.132812 C 682.644531 317.90625 682.722656 317.558594 682.570312 317.140625 C 682.148438 316.144531 679.425781 313.84375 679.273438 313.691406 Z M 565.582031 474.382812 C 565.277344 474.574219 565.164062 474.957031 565.355469 475.265625 C 565.582031 475.761719 565.546875 476.414062 565.429688 477.101562 C 565.277344 478.023438 564.855469 479.019531 564.320312 480.128906 C 564.089844 480.664062 563.785156 481.238281 563.476562 481.851562 C 563.171875 482.386719 562.824219 482.964844 562.519531 483.539062 C 561.90625 484.648438 561.253906 485.722656 560.640625 486.71875 C 559.378906 488.746094 558.152344 490.433594 557.464844 491.238281 C 557.195312 491.503906 557.15625 491.925781 557.464844 492.195312 C 557.730469 492.5 558.152344 492.5 558.421875 492.195312 C 559.417969 491.351562 561.253906 489.320312 563.054688 486.832031 C 563.59375 486.066406 564.128906 485.261719 564.625 484.457031 C 564.933594 483.882812 565.238281 483.347656 565.507812 482.773438 C 566.121094 481.46875 566.617188 480.128906 566.847656 478.941406 C 567.230469 477.179688 567.152344 475.648438 566.425781 474.652344 C 566.273438 474.34375 565.890625 474.230469 565.582031 474.382812 Z M 556.082031 470.78125 C 556.082031 470.820312 556.082031 470.898438 556.082031 470.933594 C 556.121094 470.933594 556.121094 470.933594 556.121094 470.933594 C 556.160156 470.933594 556.160156 470.972656 556.121094 471.050781 L 556.160156 471.125 L 556.121094 471.050781 C 556.082031 471.164062 556.046875 471.28125 556.007812 471.355469 C 555.433594 473.117188 553.554688 477.371094 553.402344 477.601562 C 552.675781 479.054688 551.832031 480.359375 550.914062 481.585938 C 550.300781 482.425781 549.6875 483.269531 548.996094 484.035156 C 547.695312 485.566406 546.316406 486.984375 544.859375 488.324219 C 543.40625 489.703125 541.871094 491.007812 540.339844 492.386719 C 540.035156 492.617188 539.996094 493.074219 540.226562 493.382812 C 540.457031 493.6875 540.914062 493.726562 541.222656 493.457031 C 542.867188 492.195312 544.515625 491.007812 546.085938 489.742188 C 547.695312 488.402344 549.226562 487.023438 550.644531 485.492188 C 551.410156 484.6875 552.136719 483.84375 552.789062 482.925781 C 553.746094 481.546875 554.550781 480.089844 555.28125 478.480469 C 555.394531 478.25 556.925781 473.578125 557.308594 471.703125 C 557.386719 471.242188 557.425781 470.898438 557.386719 470.742188 C 557.269531 470.324219 557.042969 470.167969 556.773438 470.167969 C 556.390625 470.167969 556.121094 470.4375 556.082031 470.78125 Z M 556.082031 470.933594 C 556.046875 470.933594 556.082031 471.011719 556.121094 471.050781 C 556.121094 471.011719 556.121094 470.972656 556.082031 470.933594 Z M 543.214844 476.375 C 543.980469 475.457031 544.628906 474.460938 545.242188 473.347656 C 545.78125 472.351562 546.085938 471.433594 546.238281 470.515625 C 546.429688 469.363281 546.429688 468.292969 546.46875 467.21875 C 546.46875 466.222656 546.507812 465.265625 546.777344 464.230469 C 546.890625 463.925781 546.738281 463.582031 546.394531 463.425781 C 546.046875 463.351562 545.703125 463.503906 545.589844 463.847656 C 544.746094 465.917969 544.976562 467.949219 544.402344 470.09375 C 544.210938 470.820312 543.941406 471.546875 543.441406 472.3125 C 542.867188 473.273438 542.179688 474.113281 541.488281 474.917969 C 540.761719 475.800781 539.996094 476.566406 539.152344 477.292969 C 537.621094 478.75 535.933594 480.050781 534.25 481.355469 C 531.644531 483.382812 529.039062 485.414062 526.894531 487.90625 C 526.664062 488.210938 526.664062 488.632812 526.972656 488.902344 C 527.238281 489.167969 527.699219 489.128906 527.96875 488.863281 C 530.152344 486.5625 532.832031 484.800781 535.4375 482.964844 C 537.238281 481.699219 539.078125 480.433594 540.683594 478.980469 C 541.605469 478.175781 542.445312 477.332031 543.214844 476.375 Z M 394.472656 425.734375 C 394.28125 426.386719 394.050781 426.960938 393.820312 427.613281 C 393.667969 428.03125 393.515625 428.453125 393.363281 428.875 C 393.246094 429.21875 393.132812 429.566406 393.054688 429.949219 C 392.941406 430.332031 392.863281 430.675781 392.789062 431.058594 C 392.632812 431.824219 392.558594 432.589844 392.558594 433.394531 C 392.480469 434.546875 392.558594 435.695312 392.789062 436.921875 C 392.824219 437.304688 393.171875 437.609375 393.554688 437.570312 C 393.898438 437.53125 394.203125 437.1875 394.167969 436.804688 C 394.167969 435.695312 394.320312 434.699219 394.511719 433.703125 C 394.625 433.011719 394.816406 432.324219 395.007812 431.632812 C 395.085938 431.25 395.164062 430.867188 395.238281 430.523438 C 395.316406 430.140625 395.355469 429.71875 395.429688 429.375 C 395.585938 428.226562 395.660156 427.074219 395.738281 425.925781 C 395.777344 425.582031 395.546875 425.238281 395.199219 425.199219 C 394.855469 425.160156 394.511719 425.390625 394.472656 425.734375 Z M 404.28125 437.878906 C 404.242188 437.226562 404.164062 436.574219 404.125 435.925781 C 404.050781 434.546875 404.050781 433.203125 404.203125 431.980469 C 404.355469 430.5625 404.699219 429.375 405.429688 428.53125 C 405.695312 428.300781 405.695312 427.917969 405.464844 427.648438 C 405.199219 427.382812 404.816406 427.382812 404.585938 427.613281 C 403.476562 428.492188 402.746094 429.910156 402.324219 431.632812 C 402.019531 432.972656 401.867188 434.46875 401.90625 436.039062 C 401.90625 436.726562 401.941406 437.417969 402.019531 438.109375 C 402.171875 439.140625 402.363281 440.175781 402.554688 441.171875 C 403.285156 444.238281 404.355469 446.996094 405.238281 448.449219 C 405.429688 448.792969 405.851562 448.949219 406.195312 448.757812 C 406.539062 448.566406 406.652344 448.144531 406.460938 447.796875 C 405.773438 446.34375 405.082031 443.699219 404.625 440.75 C 404.472656 439.832031 404.394531 438.835938 404.28125 437.878906 Z M 418.453125 428.1875 C 418.527344 428.1875 418.527344 428.148438 418.492188 428.109375 L 418.453125 428.148438 Z M 417.953125 427 C 418.300781 426.921875 418.644531 427.152344 418.71875 427.496094 C 418.796875 427.726562 418.683594 427.996094 418.492188 428.109375 C 418.492188 428.109375 418.453125 428.109375 418.453125 428.148438 C 418.414062 428.1875 418.335938 428.226562 418.261719 428.226562 C 418.300781 428.226562 418.375 428.226562 418.453125 428.1875 C 418.453125 428.226562 418.453125 428.261719 418.453125 428.300781 C 418.070312 429.414062 417.878906 432.4375 417.839844 432.78125 C 417.6875 433.664062 417.570312 434.507812 417.457031 435.347656 C 417.378906 435.925781 417.304688 436.460938 417.226562 437.035156 C 417.035156 438.453125 416.921875 439.832031 416.921875 441.25 C 416.957031 443.050781 417.148438 444.886719 417.722656 446.765625 C 417.839844 447.148438 417.648438 447.53125 417.304688 447.683594 C 416.921875 447.796875 416.535156 447.605469 416.382812 447.222656 C 415.386719 444.773438 414.929688 442.320312 414.851562 439.792969 C 414.8125 438.566406 414.890625 437.304688 415.082031 436.039062 C 415.234375 434.8125 415.542969 433.585938 415.847656 432.363281 C 415.960938 432.054688 416.460938 429.640625 416.957031 428.339844 C 417.113281 427.917969 417.265625 427.574219 417.417969 427.382812 C 417.609375 427.152344 417.800781 427.039062 417.953125 427 " fill-opacity="1" fill-rule="evenodd"/><path fill="#fed69f" d="M 558.152344 33.410156 C 561.179688 29.925781 564.78125 26.9375 568.648438 24.332031 C 570.984375 22.800781 573.4375 21.421875 575.886719 20.117188 C 577.535156 19.273438 579.21875 18.433594 580.867188 17.667969 C 582.285156 17.015625 583.664062 16.402344 585.082031 15.828125 C 586.535156 15.292969 587.953125 14.71875 589.410156 14.21875 C 589.984375 14.027344 590.558594 13.796875 591.132812 13.605469 C 591.515625 13.492188 591.898438 13.375 592.28125 13.300781 C 592.359375 13.339844 592.78125 13.414062 592.972656 13.453125 C 593.316406 13.492188 593.585938 13.414062 593.738281 13.300781 C 593.890625 13.144531 594.082031 12.953125 594.007812 12.570312 C 593.929688 12.226562 593.585938 11.996094 593.242188 12.074219 C 593.203125 12.074219 593.125 12.113281 593.085938 12.113281 C 592.972656 12.113281 592.855469 12.035156 592.742188 12.035156 C 592.472656 11.957031 592.246094 11.921875 592.054688 11.957031 C 591.632812 11.996094 591.171875 12.113281 590.75 12.1875 C 590.136719 12.34375 589.523438 12.496094 588.910156 12.6875 C 587.417969 13.109375 585.925781 13.566406 584.429688 14.027344 C 582.9375 14.527344 581.480469 15.101562 580.023438 15.675781 C 578.261719 16.441406 576.539062 17.207031 574.816406 18.125 C 572.289062 19.429688 569.835938 20.960938 567.5 22.644531 C 563.554688 25.480469 559.992188 28.773438 557.078125 32.527344 C 556.851562 32.835938 556.886719 33.296875 557.195312 33.523438 C 557.5 33.753906 557.921875 33.714844 558.152344 33.410156 Z M 625.035156 44.480469 C 624.113281 41.148438 623.042969 37.851562 621.816406 34.710938 C 620.972656 32.527344 620.015625 30.421875 619.058594 28.429688 C 618.214844 26.78125 617.371094 25.175781 616.414062 23.640625 C 615.496094 22.070312 614.460938 20.539062 613.351562 19.082031 C 613.082031 18.699219 612.777344 18.316406 612.46875 17.933594 C 612.011719 17.398438 611.550781 16.863281 611.089844 16.324219 C 610.898438 16.132812 610.59375 15.941406 610.285156 15.714844 C 610.171875 15.675781 610.054688 15.558594 609.941406 15.484375 C 609.980469 15.328125 609.902344 15.175781 609.828125 15.0625 C 609.636719 14.792969 609.214844 14.71875 608.945312 14.910156 C 608.753906 15.0625 608.675781 15.214844 608.601562 15.367188 C 608.523438 15.597656 608.5625 15.867188 608.753906 16.171875 C 608.984375 16.480469 609.75 16.898438 610.019531 17.246094 C 610.363281 17.703125 610.707031 18.164062 611.050781 18.625 C 611.398438 19.082031 611.703125 19.542969 612.011719 20.003906 C 613.007812 21.496094 613.925781 23.027344 614.769531 24.5625 C 615.609375 26.132812 616.375 27.742188 617.105469 29.351562 C 618.023438 31.339844 618.867188 33.410156 619.710938 35.554688 C 620.898438 38.621094 622.046875 41.800781 623.042969 45.054688 C 624.726562 50.53125 626.03125 56.125 626.71875 61.449219 C 626.757812 61.832031 627.101562 62.101562 627.484375 62.0625 C 627.867188 62.023438 628.136719 61.679688 628.097656 61.296875 C 627.636719 55.820312 626.566406 50.074219 625.035156 44.480469 Z M 602.355469 10.617188 L 606.457031 10.273438 L 607.070312 10.195312 C 606.914062 9.890625 606.683594 9.621094 606.417969 9.390625 C 605.957031 9.046875 605.34375 8.855469 604.578125 9.125 C 604.195312 9.199219 603.851562 9.390625 603.507812 9.621094 C 603.160156 9.851562 602.816406 10.160156 602.511719 10.464844 C 602.472656 10.503906 602.433594 10.578125 602.355469 10.617188 Z M 600.59375 11.996094 C 600.480469 11.882812 600.363281 11.691406 600.402344 11.347656 C 600.402344 11.039062 600.941406 9.929688 601.207031 9.46875 C 601.550781 9.007812 601.9375 8.550781 602.355469 8.167969 C 602.816406 7.746094 603.351562 7.402344 603.925781 7.171875 C 605.460938 6.558594 606.839844 6.824219 607.835938 7.628906 C 608.753906 8.359375 609.367188 9.585938 609.558594 11 C 609.558594 11.078125 609.636719 12.113281 608.640625 12.1875 C 608.601562 12.1875 608.601562 12.1875 608.5625 12.1875 L 606.53125 12.1875 C 605.765625 12.1875 605 12.1875 604.273438 12.152344 C 603.507812 12.113281 602.738281 12.113281 601.972656 12.035156 C 601.820312 12.035156 601.707031 11.996094 601.589844 11.921875 L 601.550781 11.957031 C 601.324219 12.152344 601.132812 12.152344 601.054688 12.152344 C 600.863281 12.1875 600.710938 12.074219 600.59375 11.996094 Z M 609.023438 71.675781 C 609.289062 71.945312 609.289062 72.367188 609.023438 72.671875 C 608.792969 72.941406 608.332031 72.941406 608.066406 72.671875 C 600.863281 66.085938 595.539062 57.695312 588.566406 51.453125 C 585.808594 48.960938 582.820312 46.855469 579.296875 45.324219 C 577.113281 44.367188 574.777344 43.636719 572.171875 43.214844 C 570.753906 42.949219 569.261719 42.757812 567.804688 42.71875 C 566.351562 42.679688 564.933594 42.757812 563.515625 43.101562 C 561.984375 43.445312 560.488281 43.980469 559.070312 44.710938 C 557.617188 45.398438 556.199219 46.242188 554.859375 47.125 C 553.710938 47.851562 552.597656 48.617188 551.488281 49.382812 C 549.800781 50.570312 548.15625 51.796875 546.46875 52.984375 C 546.164062 53.214844 545.359375 53.636719 544.746094 54.09375 C 544.4375 54.324219 544.132812 54.515625 544.054688 54.746094 C 543.980469 55.089844 543.597656 55.28125 543.289062 55.207031 C 542.945312 55.089844 542.753906 54.746094 542.832031 54.402344 C 542.945312 54.058594 543.214844 53.671875 543.671875 53.289062 C 544.324219 52.714844 545.242188 52.140625 545.625 51.875 C 547.273438 50.609375 548.882812 49.308594 550.53125 48.082031 C 551.601562 47.238281 552.714844 46.394531 553.863281 45.628906 C 555.507812 44.480469 557.269531 43.371094 559.109375 42.488281 C 560.375 41.875 561.675781 41.378906 563.015625 41.03125 C 564.28125 40.726562 565.582031 40.574219 566.886719 40.535156 C 568.800781 40.496094 570.679688 40.6875 572.554688 40.996094 C 575.351562 41.453125 577.878906 42.21875 580.179688 43.253906 C 583.933594 44.902344 587.113281 47.199219 589.984375 49.882812 C 596.878906 56.316406 601.972656 64.898438 609.023438 71.675781 " fill-opacity="1" fill-rule="evenodd"/><path fill="#fed69f" d="M 602.929688 797.644531 C 602.929688 797.644531 518.390625 835.375 445.191406 868.125 C 392.480469 891.722656 345.671875 912.710938 340.539062 915.011719 C 335.710938 912.867188 293.996094 894.441406 247.035156 873.792969 C 181.609375 844.988281 105.996094 811.855469 105.996094 811.855469 C 105.648438 811.699219 105.304688 811.855469 105.152344 812.160156 C 105 812.503906 105.152344 812.851562 105.457031 813.003906 C 105.457031 813.003906 180.882812 846.636719 246.191406 875.671875 C 296.066406 897.851562 340.078125 917.308594 340.078125 917.308594 C 340.386719 917.425781 340.730469 917.425781 341 917.308594 C 341 917.308594 390.222656 895.167969 446.03125 870 C 519.121094 837.019531 603.507812 798.90625 603.507812 798.90625 C 603.890625 798.753906 604.042969 798.332031 603.890625 797.988281 C 603.699219 797.605469 603.316406 797.453125 602.929688 797.644531 Z M 342.722656 949.101562 C 343.027344 955.769531 343.21875 961.015625 343.21875 961.015625 C 343.257812 961.398438 342.953125 961.742188 342.570312 961.742188 C 342.1875 961.78125 341.878906 961.511719 341.839844 961.128906 C 341.839844 961.128906 341.304688 955.882812 340.730469 949.21875 C 340.5 946.726562 340.269531 944.007812 340.078125 941.289062 C 339.964844 939.984375 339.886719 938.644531 339.8125 937.34375 C 339.734375 935.964844 339.65625 934.625 339.621094 933.359375 C 339.3125 926.65625 339.199219 921.40625 339.199219 921.40625 C 339.199219 921.0625 339.464844 920.757812 339.8125 920.757812 C 340.15625 920.71875 340.460938 920.988281 340.460938 921.332031 C 340.460938 921.332031 341.074219 926.539062 341.6875 933.207031 C 341.804688 934.46875 341.917969 935.8125 342.03125 937.152344 C 342.148438 938.492188 342.222656 939.792969 342.300781 941.136719 C 342.492188 943.855469 342.609375 946.574219 342.722656 949.101562 " fill-opacity="1" fill-rule="evenodd"/><path fill="#c77951" d="M 368.082031 681.539062 C 368.082031 681.539062 366.738281 709.347656 365.207031 744.78125 C 364.902344 751.597656 364.59375 758.648438 364.289062 765.847656 C 364.019531 772.820312 363.753906 779.867188 363.484375 786.957031 C 362.949219 801.359375 362.410156 815.800781 361.953125 829.128906 C 360.726562 864.5625 359.808594 892.410156 359.808594 892.410156 C 359.769531 892.792969 360.074219 893.136719 360.457031 893.136719 C 360.839844 893.136719 361.1875 892.832031 361.1875 892.449219 C 361.1875 892.449219 362.449219 864.640625 363.945312 829.207031 C 364.519531 815.875 365.167969 801.472656 365.742188 787.03125 C 366.011719 779.984375 366.28125 772.898438 366.546875 765.964844 C 366.816406 758.722656 367.085938 751.675781 367.316406 744.859375 C 368.503906 709.425781 369.34375 681.578125 369.34375 681.578125 C 369.34375 681.230469 369.078125 680.925781 368.730469 680.925781 C 368.386719 680.925781 368.082031 681.195312 368.082031 681.539062 Z M 557.882812 607.226562 C 557.882812 607.226562 496.289062 629.097656 443.042969 648.097656 C 404.929688 661.695312 371.070312 673.800781 366.929688 675.296875 C 364.328125 674.183594 350.039062 667.789062 330.386719 659.128906 C 319.394531 654.226562 306.675781 648.632812 293.421875 642.8125 C 241.980469 620.136719 182.492188 594.050781 182.492188 594.050781 C 182.183594 593.894531 181.800781 594.050781 181.648438 594.355469 C 181.53125 594.699219 181.648438 595.046875 181.992188 595.199219 C 181.992188 595.199219 241.25 621.78125 292.582031 644.726562 C 305.796875 650.625 318.476562 656.257812 329.507812 661.160156 C 351.1875 670.8125 366.394531 677.554688 366.394531 677.554688 C 366.664062 677.671875 366.96875 677.671875 367.277344 677.59375 C 367.277344 677.59375 403.09375 664.683594 443.695312 650.011719 C 496.902344 630.785156 558.34375 608.527344 558.34375 608.527344 C 558.6875 608.375 558.878906 607.992188 558.765625 607.648438 C 558.613281 607.265625 558.230469 607.074219 557.882812 607.226562 Z M 264.808594 536.589844 C 274.347656 541.035156 284.652344 545.824219 294.992188 550.574219 C 300.050781 552.910156 305.105469 555.246094 310.085938 557.503906 C 315.257812 559.878906 320.3125 562.179688 325.21875 564.363281 C 349.195312 575.203125 368.117188 583.628906 370.300781 584.585938 C 370.300781 586.3125 370.378906 595.773438 370.570312 607.609375 C 370.648438 612.511719 370.722656 617.835938 370.839844 623.160156 C 370.875 625.765625 370.953125 628.371094 371.03125 630.9375 C 371.144531 633.617188 371.222656 636.222656 371.296875 638.714844 C 371.835938 651.8125 372.332031 662.078125 372.332031 662.078125 C 372.332031 662.425781 372.640625 662.691406 372.984375 662.691406 C 373.328125 662.691406 373.597656 662.386719 373.597656 662.042969 C 373.597656 662.042969 373.597656 661.851562 373.597656 661.660156 C 375.742188 660.664062 381.257812 658.480469 389.1875 655.414062 C 398.265625 651.929688 410.445312 647.332031 423.851562 642.277344 C 431.285156 639.480469 439.097656 636.53125 447.027344 633.542969 C 458.710938 629.058594 470.585938 624.503906 481.65625 620.25 C 507.742188 610.289062 529.386719 602.015625 533.675781 600.445312 C 534.058594 600.292969 534.25 599.910156 534.097656 599.527344 C 533.980469 599.183594 533.558594 598.992188 533.214844 599.105469 C 528.542969 600.753906 503.875 609.792969 475.144531 620.519531 C 467.597656 623.316406 459.785156 626.226562 451.96875 629.214844 C 446.796875 631.167969 441.628906 633.121094 436.570312 635.074219 C 425.117188 639.480469 414.125 643.769531 404.546875 647.5625 C 389.148438 653.652344 377.582031 658.402344 373.597656 660.242188 C 373.558594 656.753906 373.519531 648.519531 373.445312 638.675781 C 373.40625 636.183594 373.328125 633.542969 373.289062 630.898438 C 373.25 628.332031 373.175781 625.726562 373.097656 623.121094 C 372.945312 617.796875 372.753906 612.472656 372.5625 607.53125 C 372.179688 596.117188 371.796875 586.886719 371.71875 584.703125 C 374.9375 583.746094 395.316406 577.847656 420.980469 570.339844 C 426.34375 568.730469 431.898438 567.082031 437.605469 565.398438 C 443.082031 563.75 448.636719 562.101562 454.230469 560.417969 C 465.566406 557.007812 476.90625 553.523438 487.402344 550.304688 C 515.25 541.800781 537.121094 535.058594 537.121094 535.058594 C 537.503906 534.945312 537.699219 534.5625 537.582031 534.175781 C 537.46875 533.832031 537.085938 533.601562 536.738281 533.71875 C 536.738281 533.71875 514.753906 540.152344 486.828125 548.390625 C 476.292969 551.492188 464.917969 554.863281 453.578125 558.234375 C 447.984375 559.917969 442.429688 561.605469 436.953125 563.25 C 431.285156 564.976562 425.730469 566.660156 420.367188 568.308594 C 393.859375 576.46875 373.023438 582.941406 371.070312 583.554688 C 370.074219 583.09375 350.765625 573.976562 326.097656 562.445312 C 321.234375 560.1875 316.175781 557.851562 311.042969 555.476562 C 306.0625 553.175781 300.96875 550.839844 295.914062 548.503906 C 285.570312 543.792969 275.226562 539.117188 265.652344 534.789062 C 240.21875 523.261719 220.222656 514.257812 220.222656 514.257812 C 219.839844 514.105469 219.457031 514.257812 219.265625 514.605469 C 219.109375 514.949219 219.265625 515.371094 219.609375 515.523438 C 219.609375 515.523438 239.488281 524.832031 264.808594 536.589844 Z M 216.699219 586.503906 C 216.699219 586.351562 216.660156 586.234375 216.542969 586.351562 C 216.542969 586.386719 216.582031 586.425781 216.621094 586.464844 Z M 215.777344 587.382812 C 215.28125 587 215.433594 586.542969 215.511719 586.425781 C 215.703125 586.121094 216.085938 586.042969 216.390625 586.234375 C 216.429688 586.273438 216.503906 586.3125 216.542969 586.351562 L 216.503906 586.351562 C 216.503906 586.386719 216.542969 586.425781 216.621094 586.464844 C 216.660156 586.542969 216.660156 586.617188 216.660156 586.695312 L 216.699219 586.578125 L 216.699219 586.503906 C 216.773438 586.578125 216.925781 586.617188 217.042969 586.695312 C 218.152344 587.308594 220.527344 588.496094 223.898438 590.140625 C 232.59375 594.394531 247.953125 601.59375 265.765625 610.0625 C 274.617188 614.234375 284.078125 618.792969 293.613281 623.390625 C 304.035156 628.449219 314.53125 633.582031 324.449219 638.523438 C 343.410156 647.90625 360.226562 656.488281 370.300781 662.003906 C 370.609375 662.195312 370.761719 662.617188 370.570312 662.960938 C 370.378906 663.304688 369.957031 663.421875 369.613281 663.230469 C 358.886719 657.484375 340.386719 648.441406 319.855469 638.523438 C 308.976562 633.273438 297.558594 627.835938 286.453125 622.472656 C 278.789062 618.757812 271.28125 615.15625 264.195312 611.667969 C 251.171875 605.347656 239.566406 599.601562 230.945312 595.3125 C 224.28125 591.980469 219.457031 589.492188 217.15625 588.226562 C 216.429688 587.84375 215.96875 587.539062 215.777344 587.382812 " fill-opacity="1" fill-rule="evenodd"/><path fill="#fed69f" d="M 278.714844 808.445312 L 327.207031 829.054688 L 331.539062 735.894531 L 284 718.617188 Z M 480.582031 635.074219 L 464.800781 625.34375 L 432.394531 639.441406 L 446.453125 650.550781 L 448.789062 755.964844 L 484.03125 740.527344 Z M 349.925781 515.023438 L 377.003906 530.808594 L 316.519531 557.390625 L 310.777344 609.601562 L 278.332031 595.160156 L 285.148438 542.871094 L 349.925781 515.023438 " fill-opacity="1" fill-rule="evenodd"/><path fill="#fed69f" d="M 621.433594 831.847656 C 621.355469 831.886719 621.242188 831.925781 621.089844 831.925781 C 621.164062 831.695312 621.203125 831.464844 621.242188 831.3125 C 621.28125 831.160156 621.355469 831.007812 621.394531 830.890625 C 621.96875 829.972656 622.660156 829.128906 622.851562 828.898438 C 623.960938 827.40625 627.332031 823.652344 630.742188 821.355469 C 632.003906 820.550781 633.269531 819.898438 634.378906 819.707031 C 635.109375 819.59375 635.796875 819.667969 636.332031 820.128906 C 636.449219 820.242188 636.410156 820.359375 636.410156 820.511719 C 636.332031 820.742188 636.257812 820.972656 636.105469 821.199219 C 635.722656 822.003906 635.070312 822.769531 634.6875 823.152344 C 633.382812 824.6875 631.8125 826.027344 630.167969 827.214844 C 628.441406 828.402344 626.644531 829.4375 624.804688 830.355469 C 624.269531 830.625 623.691406 830.890625 623.117188 831.160156 C 622.582031 831.390625 622.007812 831.621094 621.433594 831.847656 Z M 619.785156 828.441406 C 619.671875 828.9375 619.554688 829.398438 619.441406 829.894531 C 619.25 830.242188 619.058594 830.546875 618.867188 830.855469 C 617.871094 830.316406 617.21875 828.746094 616.644531 826.871094 C 615.457031 822.769531 615.035156 817.101562 614.769531 815.035156 C 614.691406 814.421875 614.386719 812.886719 614.460938 811.585938 C 614.460938 811.242188 614.539062 810.894531 614.613281 810.628906 C 614.691406 810.511719 614.730469 810.359375 614.882812 810.320312 C 615.074219 810.246094 615.265625 810.359375 615.457031 810.476562 C 615.765625 810.667969 616.03125 810.933594 616.261719 811.203125 C 616.875 811.96875 617.410156 812.886719 617.679688 813.386719 C 618.714844 815.261719 619.363281 817.371094 619.785156 819.554688 C 620.167969 821.738281 620.246094 823.996094 620.09375 826.140625 C 620.015625 826.871094 619.9375 827.675781 619.785156 828.441406 Z M 618.789062 832.347656 C 618.558594 832.234375 618.789062 832.117188 619.058594 832.003906 C 619.019531 832.234375 618.941406 832.386719 618.789062 832.347656 Z M 652.421875 847.667969 C 645.375 845.601562 638.976562 840.8125 632.121094 836.945312 C 630.433594 836.023438 628.671875 835.066406 626.871094 834.300781 C 625.875 833.839844 624.878906 833.457031 623.808594 833.152344 L 624 833.074219 C 624.574219 832.808594 625.1875 832.539062 625.761719 832.269531 C 627.675781 831.351562 629.628906 830.242188 631.390625 829.015625 C 633.230469 827.710938 634.917969 826.296875 636.371094 824.648438 C 637.023438 823.957031 638.324219 822.3125 638.59375 820.972656 C 638.824219 819.976562 638.59375 819.09375 637.789062 818.40625 C 636.066406 816.949219 633.691406 817.179688 631.199219 818.441406 C 627.792969 820.203125 624.152344 823.921875 622.160156 826.257812 C 622.3125 823.957031 622.160156 821.546875 621.703125 819.171875 C 621.242188 816.832031 620.476562 814.496094 619.289062 812.46875 C 618.828125 811.699219 617.832031 809.976562 616.683594 809.132812 C 615.957031 808.597656 615.152344 808.40625 614.347656 808.636719 C 613.503906 808.90625 613.007812 809.710938 612.8125 810.78125 C 612.585938 812.3125 613.042969 814.457031 613.160156 815.261719 C 613.464844 817.371094 614 823.117188 615.34375 827.253906 C 616.070312 829.550781 617.027344 831.351562 618.292969 831.964844 C 618.332031 832.003906 618.367188 832.003906 618.40625 832.003906 C 618.253906 832.617188 618.332031 833.113281 618.558594 833.421875 C 618.558594 833.496094 618.597656 833.535156 618.636719 833.574219 C 618.675781 833.726562 618.714844 833.917969 618.828125 834.109375 C 618.90625 834.222656 619.210938 834.570312 619.824219 834.644531 C 620.550781 834.800781 622.390625 834.875 622.621094 834.953125 C 623.808594 835.21875 624.957031 835.640625 626.105469 836.140625 C 627.832031 836.867188 629.515625 837.75 631.164062 838.628906 C 638.210938 842.5 644.800781 847.25 652 849.203125 C 656.828125 850.542969 661.960938 850.65625 667.667969 848.4375 C 668.011719 848.320312 668.203125 847.898438 668.050781 847.554688 C 667.9375 847.171875 667.515625 847.019531 667.167969 847.132812 C 661.769531 849.125 656.980469 848.972656 652.421875 847.667969 Z M 673.03125 503.304688 C 673.296875 503.570312 673.296875 504.03125 673.03125 504.300781 C 672.722656 504.566406 672.304688 504.566406 672.035156 504.300781 C 670.808594 503.113281 669.390625 502.117188 667.859375 501.195312 C 664.296875 499.011719 660.160156 497.328125 656.941406 494.992188 C 652.804688 491.964844 649.320312 488.480469 646.371094 484.609375 C 645.183594 483.039062 644.109375 481.394531 643.074219 479.667969 C 641.582031 477.179688 640.242188 474.574219 639.015625 471.816406 C 638.59375 470.898438 635.300781 464.386719 633.882812 460.441406 C 633.5 459.328125 633.230469 458.449219 633.191406 457.835938 C 633.15625 457.335938 633.269531 456.992188 633.421875 456.800781 C 633.613281 456.492188 633.996094 456.457031 634.304688 456.6875 C 634.535156 456.878906 634.609375 457.222656 634.457031 457.488281 C 634.304688 457.453125 634.496094 457.875 634.609375 458.21875 C 634.878906 459.289062 635.644531 460.9375 636.488281 462.699219 C 638.25 466.261719 640.472656 470.246094 640.816406 470.972656 C 642.117188 473.617188 643.496094 476.105469 644.992188 478.519531 C 646.023438 480.128906 647.058594 481.699219 648.207031 483.230469 C 651.003906 486.984375 654.222656 490.433594 658.128906 493.382812 C 661.234375 495.796875 665.253906 497.597656 668.703125 499.855469 C 670.3125 500.890625 671.765625 502 673.03125 503.304688 Z M 634.609375 799.75 C 634.570312 799.75 634.535156 799.75 634.535156 799.710938 C 634.535156 799.671875 634.609375 799.75 634.609375 799.75 Z M 634.609375 799.75 L 634.648438 799.789062 L 634.6875 799.789062 C 634.648438 799.789062 634.648438 799.789062 634.609375 799.75 Z M 634.6875 799.828125 L 634.726562 799.828125 C 634.761719 799.863281 634.761719 799.863281 634.800781 799.902344 C 634.800781 799.863281 634.761719 799.828125 634.6875 799.828125 Z M 660.199219 798.179688 C 657.671875 798.640625 655.105469 799.058594 652.539062 799.40625 C 651.195312 799.597656 649.816406 799.75 648.476562 799.863281 C 647.097656 800.019531 645.757812 800.09375 644.378906 800.09375 C 643.84375 800.09375 637.789062 799.902344 635.375 799.789062 C 635.109375 799.75 634.839844 799.789062 634.6875 799.789062 L 634.648438 799.789062 L 634.609375 799.75 L 634.570312 799.75 L 634.535156 799.710938 C 634.226562 799.597656 633.882812 799.75 633.765625 800.054688 C 633.691406 800.132812 633.613281 800.820312 634.304688 800.976562 C 634.457031 801.011719 634.800781 801.050781 635.261719 801.128906 C 637.675781 801.472656 643.804688 802.085938 644.339844 802.125 C 646.0625 802.199219 647.789062 802.164062 649.472656 802.046875 C 650.621094 801.972656 651.734375 801.855469 652.882812 801.664062 C 655.488281 801.28125 658.054688 800.746094 660.582031 800.171875 C 664.375 799.328125 668.128906 798.371094 672.035156 797.796875 C 672.417969 797.757812 672.6875 797.375 672.648438 797.03125 C 672.570312 796.609375 672.226562 796.378906 671.84375 796.417969 C 667.898438 796.800781 664.066406 797.488281 660.199219 798.179688 " fill-opacity="1" fill-rule="evenodd"/></svg>