<svg xmlns="http://www.w3.org/2000/svg" xmlns:xlink="http://www.w3.org/1999/xlink" width="1080" zoomAndPan="magnify" viewBox="0 0 810 1012.49997" height="1350" preserveAspectRatio="xMidYMid meet" version="1.0"><defs><clipPath id="b79514ee92"><path d="M 0.820312 0 L 785.683594 0 L 785.683594 1012 L 0.820312 1012 Z M 0.820312 0 " clip-rule="nonzero"/></clipPath></defs><g clip-path="url(#b79514ee92)"><path fill="#ffffff" d="M 785.332031 935.558594 C 785.332031 665.511719 609.574219 446.726562 393.078125 446.726562 C 176.582031 446.726562 0.820312 665.511719 0.820312 935.558594 C 0.820312 977.667969 176.582031 1011.996094 393.078125 1011.996094 C 609.574219 1011.996094 785.332031 977.667969 785.332031 935.558594 Z M 393.078125 0.00390625 C 511.164062 0.00390625 606.828125 95.664062 606.828125 213.753906 C 606.828125 331.84375 511.164062 427.503906 393.078125 427.503906 C 274.988281 427.503906 179.328125 331.84375 179.328125 213.753906 C 179.328125 95.664062 274.988281 0.00390625 393.078125 0.00390625 Z M 393.078125 0.00390625 " fill-opacity="1" fill-rule="evenodd"/></g></svg>